<?xml version="1.0" standalone="no"?>
<!DOCTYPE svg PUBLIC "-//W3C//DTD SVG 20010904//EN"
 "http://www.w3.org/TR/2001/REC-SVG-20010904/DTD/svg10.dtd">
<svg version="1.0" xmlns="http://www.w3.org/2000/svg"
 width="1280.000000pt" height="1280.000000pt" viewBox="0 0 1280.000000 1280.000000"
 preserveAspectRatio="xMidYMid meet">
<metadata>
Created by potrace 1.15, written by Peter Selinger 2001-2017
</metadata>
<g transform="translate(0.000000,1280.000000) scale(0.100000,-0.100000)"
fill="#000000" stroke="none">
<path d="M6095 12794 c-161 -9 -441 -36 -605 -60 -2569 -366 -4668 -2261
-5299 -4782 -77 -305 -134 -644 -168 -997 -24 -253 -24 -857 0 -1110 81 -836
282 -1553 638 -2276 933 -1892 2744 -3206 4829 -3503 340 -49 508 -60 910 -60
501 0 817 31 1280 124 2515 507 4508 2511 4999 5030 86 440 115 756 115 1240
0 402 -11 570 -60 910 -197 1375 -826 2631 -1810 3614 -1070 1069 -2440 1710
-3959 1851 -162 15 -716 27 -870 19z m65 -359 c0 -2 -18 -14 -40 -25 -95 -48
-235 -280 -286 -474 -20 -78 -27 -128 -29 -230 -2 -104 -7 -143 -24 -187 -25
-67 -102 -171 -159 -216 -45 -36 -48 -69 -6 -79 60 -15 239 27 349 82 101 51
116 74 126 192 7 82 14 109 45 172 46 93 143 192 229 234 77 37 204 49 234 22
20 -18 47 -73 40 -81 -3 -2 -24 1 -48 7 -58 15 -174 -3 -239 -36 -54 -28 -106
-79 -121 -119 -40 -104 43 -238 222 -359 57 -39 62 -40 118 -35 75 8 130 31
206 83 126 89 254 280 334 497 17 45 41 101 54 123 32 55 113 127 178 158 55
27 194 66 234 66 19 0 23 5 23 29 0 27 -4 30 -101 60 -56 18 -99 34 -97 36 10
11 521 -104 678 -153 l55 -17 -45 -3 c-102 -5 -241 -34 -284 -58 -51 -29 -151
-115 -207 -180 -101 -117 -180 -263 -213 -397 -37 -150 -89 -227 -204 -303
l-56 -38 -110 13 c-729 84 -1352 37 -2006 -150 -316 -90 -628 -218 -992 -407
-4 -2 3 20 17 50 45 98 59 180 59 343 0 112 -6 179 -22 265 -27 141 -27 181
-2 261 27 87 69 151 157 236 66 64 73 74 63 92 -12 24 -18 25 -55 11 -14 -5
-126 -30 -248 -55 -122 -24 -233 -47 -247 -50 -34 -7 157 85 315 152 117 49
419 163 433 163 3 0 -8 -15 -25 -32 -61 -64 -122 -215 -149 -373 -20 -112 -14
-315 11 -390 10 -29 17 -81 17 -125 0 -91 -25 -165 -89 -262 -56 -85 -54 -103
10 -102 102 1 352 159 387 245 11 26 11 45 2 101 -7 37 -12 88 -12 112 0 56
34 166 70 231 62 108 186 201 285 213 41 4 47 2 82 -34 l38 -39 -67 -6 c-121
-13 -246 -88 -287 -172 -59 -122 8 -232 198 -325 120 -59 176 -63 259 -17 164
90 290 335 337 657 25 169 52 226 148 314 54 50 167 116 220 128 22 5 27 12
27 35 0 28 -1 28 -72 34 -115 10 -341 38 -358 45 -26 9 355 52 580 65 30 2 56
4 58 5 1 1 2 0 2 -3z m775 -20 c154 -14 167 -17 337 -77 98 -35 178 -66 178
-69 0 -4 -14 -9 -32 -13 -63 -12 -176 -77 -228 -130 -69 -70 -84 -95 -127
-206 -125 -327 -307 -536 -483 -557 -46 -5 -55 -3 -103 30 -74 49 -151 125
-177 177 -57 112 32 211 203 226 84 8 137 -10 157 -53 12 -25 21 -33 43 -33
15 0 27 2 27 4 0 30 -33 163 -48 193 -36 68 -64 87 -141 91 -253 15 -511 -248
-511 -519 0 -54 -2 -59 -37 -88 -37 -31 -131 -71 -208 -89 -108 -26 -103 -29
-51 30 26 29 63 86 83 126 36 72 37 77 44 225 10 229 56 377 168 546 65 100
123 143 256 193 45 16 72 18 270 13 121 -3 292 -12 380 -20z m-1358 -115 c87
-11 173 -22 191 -25 l32 -6 -74 -50 c-140 -93 -198 -192 -227 -386 -49 -329
-162 -554 -315 -629 -42 -20 -63 -25 -92 -21 -61 10 -193 82 -241 131 -37 38
-44 52 -48 93 -4 40 0 54 20 81 34 45 80 78 144 102 93 35 176 23 194 -28 2
-6 17 -8 32 -5 32 6 31 13 -16 111 -33 68 -90 127 -133 138 -14 4 -52 1 -83
-6 -171 -37 -319 -200 -367 -405 -16 -68 -15 -111 2 -238 l7 -49 -55 -51 c-46
-44 -238 -159 -238 -143 0 2 16 35 35 73 61 120 70 228 34 380 -30 123 -23
327 15 455 53 178 96 239 230 327 75 49 163 78 391 131 50 11 117 27 150 35
72 18 185 14 412 -15z m2771 -196 c176 -36 329 -113 605 -303 148 -101 165
-116 140 -119 -142 -13 -249 -51 -330 -118 -24 -20 -76 -81 -115 -137 -140
-197 -323 -352 -462 -392 -87 -25 -167 -17 -207 21 -42 39 -113 140 -133 188
-20 49 -21 125 0 154 38 54 140 81 240 62 79 -15 125 -45 140 -90 10 -31 39
-53 57 -43 11 6 8 173 -4 217 -23 83 -94 120 -229 119 -212 -2 -435 -169 -493
-370 -23 -78 -33 -90 -84 -106 -73 -23 -103 -26 -168 -16 -100 16 -101 17 -58
48 56 41 118 112 146 168 14 26 36 92 51 145 44 168 132 314 266 442 91 86
136 113 229 131 95 19 315 18 409 -1z m715 -280 c128 -65 309 -164 430 -236
124 -74 378 -240 374 -244 -2 -2 -32 6 -67 17 -128 40 -201 49 -272 34 -221
-46 -461 -205 -583 -385 -26 -39 -63 -84 -82 -100 -70 -62 -199 -110 -295
-110 -33 0 -50 -5 -54 -14 -5 -12 -21 -8 -82 21 -42 19 -139 60 -215 91 l-138
56 68 12 c87 15 130 34 228 99 99 66 226 196 325 334 81 112 129 153 228 193
49 19 75 23 194 23 136 0 137 0 143 24 3 13 5 24 3 26 -2 1 -30 18 -63 38 -74
44 -251 167 -242 167 4 0 49 -21 100 -46z m-4950 -41 c-59 -73 -100 -162 -115
-252 -11 -63 -9 -84 13 -203 28 -157 33 -386 10 -478 -43 -170 -125 -270 -222
-270 -178 0 -329 75 -329 163 0 48 45 131 93 172 78 67 168 94 197 60 16 -19
31 -19 56 -1 18 14 16 18 -46 81 -67 68 -128 105 -171 105 -73 -1 -195 -102
-247 -207 -49 -96 -64 -173 -60 -294 3 -100 5 -109 46 -191 23 -48 42 -100 42
-116 0 -39 -57 -123 -139 -207 -35 -36 -65 -64 -67 -63 -1 2 2 23 6 48 15 76
11 184 -8 247 -11 33 -45 102 -76 154 -56 92 -90 185 -117 314 -16 78 -16 278
0 334 32 112 219 324 364 415 91 57 208 107 327 142 68 19 444 100 483 103 4
1 -14 -25 -40 -56z m4055 -194 c35 -12 62 -52 62 -92 l0 -25 -62 26 c-147 59
-328 17 -384 -90 -19 -37 -17 -119 4 -176 20 -51 83 -149 126 -194 35 -36 33
-41 -11 -23 -57 22 -351 105 -374 105 -27 0 -24 15 5 28 33 15 51 44 80 130
38 110 93 180 198 251 110 74 250 98 356 60z m-5124 -191 c-56 -64 -112 -163
-124 -219 -8 -36 -11 -106 -7 -200 7 -210 42 -334 143 -495 25 -40 52 -95 60
-120 20 -69 18 -184 -7 -278 l-21 -81 -177 -180 c-195 -198 -276 -288 -396
-444 -44 -57 -87 -112 -96 -123 -14 -19 -15 -16 -11 46 6 85 -6 111 -76 173
-105 92 -157 223 -150 382 4 109 29 178 89 245 32 37 35 38 82 32 28 -3 52 -7
54 -10 2 -2 -18 -25 -45 -50 -98 -91 -145 -242 -107 -341 41 -109 174 -142
377 -94 108 25 143 52 184 141 27 59 29 71 29 188 0 98 -5 141 -22 200 -32
111 -74 209 -142 331 -72 127 -96 208 -88 295 8 79 42 182 84 252 36 59 36 78
3 90 -18 7 -15 12 32 47 129 97 353 254 357 250 2 -2 -9 -19 -25 -37z m6619
-63 c272 -52 495 -191 671 -419 73 -95 279 -396 274 -401 -2 -2 -35 5 -73 16
-117 32 -262 22 -353 -25 -18 -9 -71 -42 -118 -72 -108 -71 -256 -140 -353
-165 -146 -38 -302 -23 -364 35 -58 54 -98 285 -62 360 10 20 30 43 46 51 112
59 354 -64 334 -169 -5 -27 16 -66 35 -66 18 0 73 148 78 210 4 61 2 68 -23
99 -63 75 -180 121 -304 121 -107 0 -170 -14 -268 -61 -69 -33 -93 -51 -154
-119 -71 -78 -74 -80 -119 -80 -55 0 -133 20 -230 57 -74 29 -88 43 -42 43 34
0 120 28 180 59 62 31 115 83 182 177 126 174 361 324 560 357 14 2 25 5 25 6
0 0 35 -6 78 -14z m-3013 -235 c1850 -115 3441 -1269 4130 -2995 375 -942 430
-2045 150 -3025 -52 -182 -124 -389 -165 -475 -18 -38 -38 -88 -45 -110 -20
-63 -142 -314 -221 -453 -221 -386 -469 -712 -779 -1022 -669 -669 -1507
-1118 -2425 -1299 -1226 -242 -2488 3 -3525 684 -277 182 -503 368 -750 615
-248 247 -434 475 -614 750 -103 157 -105 161 -70 128 146 -136 368 -7 319
186 -25 97 -132 161 -227 136 -116 -31 -178 -150 -134 -255 8 -19 13 -35 12
-35 -6 0 -111 191 -174 315 -89 178 -176 375 -168 382 2 3 15 -1 27 -8 13 -6
46 -12 74 -12 99 0 178 68 191 165 21 149 -133 262 -272 199 -40 -18 -94 -76
-94 -99 0 -18 -17 -14 -23 6 -2 9 -23 80 -46 157 -120 404 -191 881 -190 1275
0 138 1 144 16 115 24 -46 45 -66 88 -86 164 -75 332 96 254 259 -39 80 -132
120 -225 96 -38 -9 -59 -23 -92 -60 l-44 -48 6 35 c3 19 8 75 11 124 11 168
65 535 93 640 l9 30 6 -35 c18 -91 93 -153 185 -153 63 0 103 16 144 60 55 58
65 157 23 229 -29 49 -108 94 -164 94 -50 -1 -111 -31 -145 -71 l-29 -34 8 35
c4 19 11 40 16 46 5 7 16 45 25 85 38 186 184 564 326 844 95 186 236 422 344
573 l52 72 -5 -58 c-4 -46 -1 -66 15 -98 51 -99 153 -138 247 -95 76 35 115
95 115 177 0 59 -19 103 -63 141 -65 57 -151 65 -224 23 -29 -17 -24 -8 37 70
100 126 226 267 359 400 l115 115 6 -60 c8 -71 18 -92 64 -133 132 -116 331
-9 314 168 -9 87 -100 170 -186 170 l-34 0 59 49 c105 87 276 212 418 306 178
116 171 113 147 79 -30 -40 -42 -105 -30 -156 37 -165 252 -202 349 -59 19 29
24 49 24 102 0 55 -4 72 -28 106 -37 53 -92 83 -153 83 -30 0 -44 4 -38 9 16
16 237 129 366 187 103 47 393 164 406 164 2 0 -10 -16 -27 -35 -76 -87 -61
-208 35 -281 33 -26 46 -29 110 -29 65 0 76 3 111 31 46 36 83 105 83 154 -1
81 -66 164 -147 185 -55 15 -60 12 107 58 231 64 423 103 675 137 178 24 220
25 153 4 -150 -46 -174 -254 -39 -344 29 -20 49 -25 103 -25 59 0 70 3 104 31
61 49 77 78 82 142 3 45 0 68 -16 99 -28 54 -75 92 -123 99 -22 4 -37 9 -34
13 18 18 428 25 655 11z m-2993 -21 c38 -24 35 -31 -17 -48 -47 -15 -127 -77
-167 -129 -41 -54 -68 -137 -59 -184 17 -93 108 -156 262 -183 48 -8 89 -17
91 -19 2 -1 -24 -20 -57 -40 -33 -20 -110 -73 -171 -117 -61 -43 -113 -79
-115 -79 -2 0 1 12 6 26 19 48 11 89 -32 170 -41 76 -42 83 -46 185 -3 80 0
121 13 165 33 114 85 192 162 243 55 37 83 39 130 10z m2407 -47 c48 -28 69
-66 74 -129 3 -48 0 -64 -20 -92 -39 -58 -72 -76 -138 -76 -66 0 -99 18 -137
75 -27 39 -31 116 -9 158 42 82 148 111 230 64z m-3488 -60 c-8 -15 -22 -66
-32 -113 -14 -71 -15 -96 -5 -158 11 -75 28 -115 119 -282 96 -176 137 -330
130 -481 -3 -75 -9 -103 -30 -144 -15 -27 -33 -56 -41 -62 -26 -22 -169 -52
-245 -52 -129 0 -179 45 -170 151 11 129 132 273 203 241 19 -9 26 -7 40 8 24
26 12 39 -73 78 -163 76 -237 44 -320 -135 -23 -52 -26 -70 -27 -173 0 -183
40 -289 157 -406 65 -66 70 -75 70 -113 -1 -55 -25 -134 -69 -229 -25 -53 -37
-71 -40 -57 -39 210 -71 263 -252 414 -97 81 -206 251 -262 411 -32 91 -32
208 0 312 22 72 32 87 138 208 63 72 191 208 285 301 158 157 181 176 302 248
72 42 132 74 134 70 2 -4 -4 -21 -12 -37z m8061 -270 c170 -170 478 -510 469
-519 -2 -2 -41 18 -87 44 l-84 47 -130 0 c-100 -1 -152 -6 -225 -24 -125 -30
-253 -86 -335 -146 -179 -132 -271 -157 -445 -120 -70 15 -78 14 -88 -15 -7
-16 -21 -7 -108 69 -55 48 -122 106 -150 129 -47 41 -48 42 -16 32 52 -18 234
-6 317 21 103 33 257 108 363 178 110 73 168 92 273 92 86 0 201 -31 277 -75
l44 -25 18 22 c18 22 17 24 -14 62 -54 69 -295 426 -287 426 5 0 98 -89 208
-198z m-1121 147 c64 -12 146 -48 182 -81 16 -16 22 -33 22 -64 0 -72 -7 -77
-46 -34 -90 100 -259 147 -360 101 -79 -36 -110 -106 -101 -231 3 -41 16 -109
30 -150 14 -41 24 -76 24 -77 -1 -1 -38 24 -82 56 -65 47 -250 167 -330 216
-12 7 -2 9 38 7 73 -5 110 15 171 90 73 91 179 149 306 167 79 12 80 12 146 0z
m-4496 -21 c57 -39 75 -72 75 -137 0 -48 -5 -64 -28 -94 -36 -48 -75 -67 -132
-67 -57 0 -96 19 -132 67 -36 48 -40 135 -7 180 37 49 82 73 139 73 38 0 61
-6 85 -22z m-859 -390 c75 -42 102 -159 52 -227 -39 -52 -83 -73 -144 -69 -95
7 -152 67 -153 159 0 126 133 200 245 137z m6834 -265 c164 -91 257 -174 362
-322 111 -158 154 -259 261 -618 l39 -132 -44 30 c-71 49 -163 87 -239 100
-77 12 -119 6 -311 -45 -278 -75 -530 -50 -645 64 l-48 47 0 105 c0 126 18
195 64 246 28 30 39 35 78 35 61 0 130 -37 189 -101 61 -67 80 -122 57 -163
-16 -26 -16 -30 1 -50 l17 -21 52 57 c122 133 127 209 24 313 -96 96 -207 141
-352 143 -141 2 -229 -23 -325 -92 -38 -27 -50 -31 -89 -27 -51 6 -162 71
-236 138 l-45 40 70 -6 c79 -7 174 8 242 37 25 10 82 47 127 81 166 126 372
191 581 184 95 -3 104 -6 170 -43z m-9352 -120 c-6 -96 24 -209 92 -346 74
-148 138 -225 306 -368 89 -76 139 -193 141 -332 0 -37 4 -70 9 -72 4 -3 -13
-40 -38 -83 -25 -42 -68 -117 -94 -167 -46 -86 -49 -88 -49 -53 0 55 -43 170
-95 253 -69 111 -173 221 -325 343 -99 79 -135 129 -166 231 -16 52 -19 239
-5 288 7 25 6 33 -6 37 -11 5 -5 19 27 63 63 89 205 283 207 283 0 0 -1 -35
-4 -77z m1775 -130 c15 -11 38 -35 50 -54 20 -28 23 -44 20 -92 -5 -69 -27
-103 -89 -135 -106 -56 -229 21 -229 143 0 69 39 128 100 154 37 16 117 7 148
-16z m7231 -144 c77 -27 155 -82 191 -137 35 -54 35 -54 10 -111 l-20 -44 -27
54 c-56 111 -164 189 -272 196 -85 6 -124 -15 -167 -85 -39 -64 -54 -138 -54
-265 0 -95 1 -100 31 -142 77 -107 217 -159 424 -158 123 1 249 20 376 58 46
14 109 28 139 32 112 11 257 -48 366 -149 34 -32 65 -58 70 -58 5 0 17 7 26
14 16 12 16 16 -4 67 -26 67 -118 372 -113 377 5 5 169 -304 231 -434 54 -116
154 -347 154 -357 0 -3 -26 20 -57 50 -110 106 -242 146 -473 147 -164 0 -225
-11 -355 -61 -153 -60 -270 -54 -412 21 -54 29 -65 32 -81 20 -17 -12 -21 -9
-42 29 -145 259 -426 634 -664 886 l-51 53 56 -35 c132 -83 184 -87 284 -22
64 43 129 68 200 78 54 8 176 -4 234 -24z m-9269 -371 c32 -86 78 -146 166
-218 278 -227 411 -428 402 -609 -4 -74 -4 -74 -50 -115 -73 -64 -179 -117
-247 -123 -54 -5 -60 -3 -93 26 -101 88 -55 371 60 371 24 0 47 38 31 54 -4 5
-52 11 -106 13 -88 4 -103 2 -142 -19 -54 -28 -76 -67 -91 -160 -22 -141 35
-308 146 -428 64 -69 103 -95 193 -130 37 -15 72 -36 84 -51 l19 -27 -33 -100
-33 -101 -56 53 c-61 58 -126 95 -205 116 -194 51 -420 224 -523 399 -34 58
-51 152 -52 281 0 141 13 187 119 403 127 259 200 384 294 506 l82 106 6 -95
c4 -59 15 -117 29 -152z m1428 -185 c100 -75 100 -202 -2 -277 -20 -16 -42
-21 -85 -21 -48 0 -64 5 -95 29 -49 37 -70 86 -63 149 5 57 29 93 83 125 47
28 121 26 162 -5z m8904 -472 c110 -28 144 -49 231 -140 113 -118 150 -181
203 -345 93 -289 95 -303 101 -579 l6 -247 -80 80 c-128 128 -217 160 -438
160 -184 0 -356 35 -478 97 -65 32 -149 112 -172 162 -17 38 -17 43 0 112 24
97 78 203 121 235 69 53 156 25 229 -74 35 -47 65 -125 65 -168 0 -12 -10 -35
-23 -51 -22 -28 -26 -73 -5 -73 23 0 130 74 166 116 48 54 58 95 37 154 -52
147 -201 270 -375 311 -85 20 -204 15 -273 -11 -83 -31 -114 -23 -185 49 -50
51 -147 180 -140 187 2 1 37 -10 78 -24 60 -21 93 -26 170 -26 86 0 104 4 185
36 82 33 150 51 230 62 68 10 273 -4 347 -23z m-10221 -34 c-24 -40 -51 -137
-51 -187 0 -56 28 -151 55 -186 32 -42 100 -68 163 -62 53 5 140 42 208 88 25
16 47 30 50 30 2 0 -5 -18 -15 -39 -17 -32 -70 -160 -112 -268 -8 -22 -8 -22
-46 -3 -21 10 -73 35 -115 55 -198 92 -317 358 -243 543 18 44 43 60 93 61
l34 1 -21 -33z m-690 -222 c13 -109 44 -173 135 -280 124 -144 291 -257 454
-305 41 -12 97 -34 123 -48 49 -26 147 -123 147 -145 0 -6 -21 -97 -46 -202
-25 -104 -48 -201 -50 -214 -4 -20 -8 -17 -29 25 -73 146 -261 296 -507 405
-153 67 -221 126 -273 233 -32 67 -65 195 -65 251 0 18 -5 25 -20 25 -11 0
-20 5 -20 10 0 28 135 382 137 360 2 -14 8 -65 14 -115z m10093 -70 c48 -20
75 -19 143 8 154 59 397 -6 509 -136 49 -58 88 -141 80 -172 -4 -14 -19 -40
-35 -57 l-28 -32 -12 54 c-24 111 -80 194 -170 252 -52 32 -132 38 -180 14
-69 -36 -134 -147 -173 -296 l-22 -85 27 -58 c84 -183 357 -297 714 -297 129
0 197 -12 268 -48 64 -32 172 -141 215 -218 18 -32 34 -60 35 -62 2 -2 14 0
27 3 l24 6 -3 167 c-1 92 -1 163 2 157 16 -36 86 -514 100 -685 l6 -75 -42 73
c-63 111 -175 190 -365 258 -138 49 -256 68 -382 59 -68 -5 -120 -3 -155 5
-74 17 -168 72 -234 136 -43 42 -61 54 -78 50 -20 -5 -24 3 -54 127 -65 262
-190 613 -310 871 l-48 102 53 -54 c30 -29 69 -59 88 -67z m-10229 -392 c44
-152 133 -258 272 -324 49 -22 117 -55 152 -71 102 -49 233 -142 302 -215 73
-78 115 -155 125 -231 6 -47 4 -57 -21 -95 -43 -63 -124 -146 -173 -175 -28
-16 -60 -25 -89 -26 -40 -1 -48 3 -83 40 -88 95 -95 313 -11 342 27 9 49 56
32 66 -15 10 -167 -25 -210 -46 -63 -33 -84 -72 -83 -159 2 -162 95 -317 253
-419 74 -47 135 -69 228 -79 54 -5 77 -13 96 -31 24 -22 25 -29 25 -133 l0
-109 -22 16 c-13 9 -55 33 -95 52 -67 33 -82 37 -205 45 -152 9 -243 32 -362
89 -175 83 -269 166 -316 278 -42 101 -70 212 -70 281 0 68 39 320 79 516 23
110 45 179 93 294 34 83 63 151 65 151 1 0 9 -26 18 -57z m1338 -467 c120 -50
134 -219 24 -286 -73 -45 -163 -30 -213 35 -101 133 36 315 189 251z m9337
-314 c90 -51 157 -63 295 -56 98 5 137 2 215 -14 160 -33 334 -113 420 -194
46 -43 125 -203 151 -309 19 -74 21 -102 16 -323 -3 -185 -8 -255 -21 -301
-19 -67 -114 -381 -122 -405 -4 -9 -14 7 -26 40 -41 109 -116 204 -206 261
-25 16 -95 45 -156 65 -336 109 -548 278 -572 456 -6 42 -3 51 40 117 86 134
173 199 244 186 129 -24 208 -321 100 -373 -21 -10 -28 -20 -28 -43 0 -16 1
-29 3 -29 1 0 35 9 76 20 93 26 142 51 175 90 22 26 26 41 26 91 0 257 -270
495 -552 487 -63 -2 -78 6 -114 64 -30 47 -80 172 -90 223 l-7 39 39 -31 c21
-17 64 -44 94 -61z m-10311 -37 c-28 -109 21 -283 94 -339 98 -74 208 -45 336
89 l64 66 -7 -38 c-3 -21 -11 -101 -18 -178 -6 -77 -12 -141 -14 -143 -1 -2
-12 2 -25 9 -12 6 -59 16 -103 21 -112 12 -191 53 -284 144 -80 80 -116 145
-133 242 -16 88 -1 134 53 161 23 11 43 19 45 17 2 -2 -1 -25 -8 -51z m10265
-214 c35 -34 38 -35 144 -42 156 -10 270 -63 366 -170 70 -77 100 -149 100
-238 1 -74 1 -75 -33 -98 -50 -34 -62 -31 -49 14 24 86 -19 229 -91 303 -122
126 -265 71 -413 -160 -53 -83 -57 -106 -32 -191 53 -183 262 -345 577 -450
147 -49 188 -72 249 -137 70 -75 114 -171 143 -314 4 -22 11 -28 33 -28 26 0
28 4 50 93 12 50 33 126 47 167 l25 75 -6 -70 c-16 -195 -101 -687 -115 -663
-4 7 -10 33 -14 58 -10 60 -37 112 -97 186 -127 157 -330 287 -523 334 -49 12
-111 33 -137 47 -67 36 -151 128 -190 207 -25 51 -37 66 -54 66 l-21 0 5 269
c6 309 -11 577 -53 861 -5 31 -2 28 24 -25 16 -33 46 -75 65 -94z m-10875
-158 c18 -44 45 -98 61 -119 49 -61 159 -142 265 -194 139 -69 252 -99 406
-109 140 -9 205 -31 284 -96 l42 -34 6 -158 c12 -275 58 -610 121 -875 l33
-137 -48 43 c-27 24 -60 46 -73 48 -14 3 -62 -1 -107 -9 -73 -12 -92 -12 -158
1 -195 40 -357 188 -378 345 -5 38 -2 46 28 77 18 19 36 34 40 34 3 0 9 -29
12 -64 8 -81 44 -162 98 -221 93 -101 192 -109 284 -24 85 79 170 249 162 325
-13 126 -150 265 -334 340 -96 38 -230 73 -363 93 -148 22 -215 50 -289 123
-55 54 -112 141 -137 209 -13 36 -15 69 -10 174 8 170 18 316 21 313 2 -2 17
-40 34 -85z m1489 -197 c69 -45 92 -161 45 -224 -39 -52 -70 -67 -137 -67 -53
0 -68 4 -98 27 -44 33 -73 102 -64 150 23 122 152 180 254 114z m-1459 -438
c42 -48 128 -105 194 -127 29 -10 93 -24 143 -30 322 -42 549 -155 631 -315
32 -62 28 -97 -22 -199 -92 -190 -201 -235 -300 -126 -49 55 -77 119 -83 196
-4 59 -3 64 24 90 19 18 28 36 26 51 -4 29 -10 28 -96 -12 -129 -59 -171 -124
-147 -222 38 -152 171 -287 337 -344 98 -34 161 -40 253 -24 99 17 121 9 179
-65 31 -39 122 -198 122 -213 0 -2 -35 13 -77 34 -45 21 -109 43 -150 50 -76
13 -103 10 -268 -28 -150 -34 -410 2 -569 81 -55 27 -81 48 -114 90 -41 52
-45 63 -67 184 -52 282 -88 599 -100 901 l-7 155 29 -45 c17 -25 44 -62 62
-82z m10938 -464 c65 -65 136 -102 252 -131 170 -42 329 -138 463 -281 84 -89
104 -128 123 -238 26 -151 21 -223 -30 -397 -57 -198 -106 -334 -141 -395 -16
-27 -78 -121 -139 -209 l-110 -161 -7 61 c-23 198 -82 292 -262 419 -182 130
-329 298 -377 432 -21 62 -27 156 -10 198 12 33 117 117 188 153 110 54 185
38 223 -48 22 -47 27 -158 10 -219 -15 -51 -56 -98 -86 -98 -17 0 -27 -8 -34
-26 -6 -14 -10 -27 -10 -29 0 -2 29 -6 64 -10 127 -14 209 14 250 84 25 43 34
171 16 250 -18 81 -76 186 -144 259 -69 74 -119 105 -223 141 -67 23 -79 31
-95 62 -22 42 -46 248 -34 293 l7 28 28 -44 c16 -24 50 -66 78 -94z m-131
-210 c23 -47 53 -69 132 -93 37 -11 89 -34 115 -51 88 -59 172 -173 203 -278
19 -66 19 -180 0 -226 -16 -38 -34 -51 -88 -61 l-36 -7 27 54 c23 47 26 64 26
158 0 88 -4 112 -22 146 -45 85 -127 125 -211 104 -107 -27 -266 -137 -305
-210 -14 -26 -17 -28 -13 -10 68 271 124 543 127 616 1 16 7 -1 15 -39 7 -37
21 -83 30 -103z m-152 -713 c47 -137 212 -324 416 -469 108 -77 157 -135 191
-230 20 -57 24 -86 25 -196 1 -126 1 -130 24 -138 12 -5 24 -7 25 -6 1 2 14
26 30 53 26 47 128 198 147 220 29 32 -197 -443 -275 -578 l-33 -57 0 133 c0
128 -1 135 -32 201 -44 93 -106 179 -194 264 -120 118 -172 152 -349 230 -77
34 -135 83 -178 150 l-30 48 40 104 c58 148 133 365 150 430 l14 55 5 -80 c4
-44 14 -104 24 -134z m-10399 95 c193 -68 398 -81 578 -37 115 28 190 25 279
-9 72 -27 177 -96 189 -124 4 -12 37 -93 71 -181 35 -88 65 -164 67 -169 2 -5
-9 0 -25 11 -45 30 -131 62 -217 78 -102 19 -309 19 -440 0 -61 -10 -122 -13
-152 -9 -120 16 -237 87 -328 201 -41 51 -55 62 -71 57 -12 -4 -23 -8 -25 -10
-2 -2 6 -49 17 -106 11 -57 19 -105 17 -106 -6 -6 -145 470 -145 495 0 1 26
-13 58 -32 31 -19 89 -46 127 -59z m1432 28 c145 -69 108 -285 -52 -309 -80
-12 -165 57 -180 146 -6 32 -2 50 17 87 42 81 134 114 215 76z m-1241 -479
c99 -48 181 -58 314 -39 137 20 344 20 439 0 132 -28 242 -92 291 -171 20 -32
20 -39 10 -117 -25 -178 -87 -279 -172 -278 -124 1 -285 220 -220 300 16 19
18 29 9 47 -6 13 -13 23 -16 23 -18 0 -124 -97 -150 -137 -41 -61 -41 -110 -2
-178 60 -103 149 -171 278 -211 73 -23 96 -26 195 -23 106 4 118 6 191 42 86
40 105 41 167 2 19 -13 58 -57 87 -98 l52 -76 -88 6 c-115 8 -158 -3 -306 -78
-155 -77 -235 -98 -403 -106 -231 -10 -297 13 -456 158 -64 59 -73 73 -151
233 -45 94 -107 232 -138 306 -51 125 -58 149 -82 315 -14 99 -29 189 -32 199
-4 13 15 2 53 -33 33 -29 91 -68 130 -86z m10042 -197 c46 -41 75 -58 171 -97
175 -71 377 -264 458 -437 26 -55 28 -67 27 -189 0 -193 -19 -262 -106 -400
-96 -151 -240 -352 -362 -503 -55 -70 -106 -133 -113 -142 -10 -12 -11 1 -7
65 7 93 -11 187 -52 267 -15 31 -75 102 -149 179 -134 140 -220 260 -268 372
-27 63 -31 84 -31 172 -1 121 7 137 94 190 123 75 243 99 298 59 43 -33 57
-70 56 -156 -1 -62 -6 -87 -28 -132 -31 -64 -70 -99 -103 -93 -16 3 -27 -3
-38 -19 -8 -13 -15 -25 -15 -28 0 -3 34 -12 76 -21 91 -21 174 -16 212 11 76
55 113 229 77 364 -41 157 -143 291 -275 359 -116 61 -120 74 -60 206 l41 87
28 -39 c15 -21 46 -55 69 -75z m-8415 -82 c136 -49 150 -225 24 -297 -102 -57
-237 22 -237 138 0 49 21 101 50 128 20 18 85 44 110 44 8 0 32 -6 53 -13z
m-366 -307 l41 -66 -43 -1 c-26 0 -65 -12 -102 -30 -107 -55 -221 -63 -353
-26 -107 31 -187 88 -242 173 -33 53 -36 98 -7 135 24 30 39 34 39 9 0 -36 51
-125 98 -172 186 -186 367 -97 417 203 l7 39 52 -99 c29 -54 71 -129 93 -165z
m8681 156 c186 -97 294 -340 236 -534 -22 -74 -51 -101 -109 -101 l-46 0 26
34 c57 74 85 202 65 291 -43 191 -225 208 -480 46 l-25 -16 23 35 c12 19 59
101 105 182 l82 146 25 -23 c14 -12 58 -39 98 -60z m-392 -478 c0 -91 3 -111
33 -186 48 -120 138 -247 277 -391 71 -74 132 -147 147 -176 35 -70 51 -160
44 -250 -13 -146 -14 -149 -180 -324 -82 -88 -153 -160 -158 -160 -4 0 3 28
17 62 47 122 21 311 -70 503 -57 121 -92 172 -186 270 -42 44 -86 96 -98 116
-32 54 -55 154 -54 246 l0 81 59 79 c33 43 83 113 113 156 30 42 54 77 54 77
1 0 1 -46 2 -103z m-8055 -76 c28 -9 55 -36 132 -133 53 -68 110 -140 127
-160 l32 -38 -39 17 c-24 10 -78 18 -149 21 -172 7 -326 -30 -533 -129 -131
-62 -205 -77 -301 -60 -76 14 -206 72 -257 115 -28 23 -35 25 -52 14 -11 -7
-22 -10 -24 -8 -7 9 -134 216 -161 263 l-27 48 64 -44 c89 -61 140 -72 332
-71 200 1 306 26 454 105 53 29 114 58 136 65 46 16 209 13 266 -5z m7769
-261 c0 -123 47 -228 155 -340 97 -101 133 -152 185 -262 57 -121 90 -244 90
-339 0 -65 -6 -94 -30 -157 -50 -129 -87 -182 -188 -271 -109 -95 -311 -258
-403 -323 -54 -39 -369 -194 -369 -183 0 3 14 32 31 65 40 80 63 193 54 274
-3 35 -21 99 -42 147 -101 243 -132 362 -133 515 0 124 25 207 79 263 32 35
44 39 114 50 138 20 228 8 279 -38 75 -66 26 -234 -94 -321 -41 -30 -94 -40
-114 -21 -5 6 -18 3 -34 -9 -14 -10 -23 -20 -20 -23 47 -38 133 -90 172 -103
88 -29 146 -6 214 87 137 187 117 484 -46 664 -50 56 -52 60 -46 102 10 76
109 263 139 263 4 0 7 -18 7 -40z m-7553 -106 c28 -8 71 -29 94 -47 38 -28 45
-40 56 -92 17 -82 16 -227 -1 -269 -21 -51 -60 -76 -120 -76 -131 0 -292 143
-254 225 10 22 9 29 -9 46 l-20 21 -42 -64 c-52 -79 -76 -152 -67 -203 9 -45
69 -107 145 -149 188 -102 449 -65 619 88 34 31 71 56 81 56 49 0 150 -43 207
-88 l61 -48 -71 -13 c-122 -23 -189 -60 -288 -161 -157 -162 -345 -259 -564
-291 -66 -10 -79 -9 -140 11 -142 48 -157 58 -290 200 -261 279 -432 497 -508
648 l-56 113 48 -25 c155 -78 314 -80 463 -6 251 127 484 171 656 124z m7348
-104 c-11 -50 4 -89 57 -147 161 -178 169 -477 17 -631 -46 -46 -77 -52 -133
-29 l-30 13 36 22 c100 62 171 184 172 293 1 57 -3 70 -28 103 -39 52 -77 73
-157 86 -65 11 -218 1 -265 -17 -9 -3 62 71 157 165 96 94 175 172 177 172 2
0 1 -13 -3 -30z m-6917 -224 c75 -72 98 -97 72 -81 -23 14 -92 -18 -148 -70
-102 -94 -209 -130 -366 -123 -108 5 -179 33 -250 98 -49 46 -56 69 -35 129
l11 31 27 -37 c67 -93 173 -154 278 -161 83 -6 140 26 175 95 20 42 23 63 23
158 0 61 -4 128 -8 150 l-9 40 74 -75 c40 -42 110 -111 156 -154z m6462 -198
c-88 -153 -59 -447 75 -743 36 -79 55 -149 55 -205 0 -95 -51 -227 -125 -324
l-36 -48 21 -23 21 -22 -68 -40 c-82 -49 -234 -133 -240 -133 -2 0 15 27 37
60 57 83 70 128 77 251 6 116 -6 231 -38 346 -26 93 -49 145 -109 244 -30 49
-54 103 -61 137 -11 54 -7 190 6 222 3 8 45 42 92 75 97 68 278 209 288 225 3
5 10 10 15 10 5 0 1 -15 -10 -32z m-5958 -212 c57 -40 135 -93 173 -117 l70
-44 -50 -2 c-208 -11 -406 -113 -637 -330 -32 -30 -87 -68 -125 -86 -64 -30
-74 -32 -183 -32 -93 1 -129 5 -185 24 -65 21 -70 22 -82 5 -11 -15 -24 -6
-126 84 -63 56 -120 109 -128 119 -13 15 -12 16 6 8 42 -19 170 -17 256 4 195
46 348 131 491 273 53 54 112 105 130 114 57 30 150 53 220 53 l68 1 102 -74z
m5504 -204 c2 -113 14 -152 83 -267 87 -144 131 -309 131 -494 0 -126 -17
-193 -68 -267 -79 -118 -138 -172 -231 -216 -288 -133 -814 -328 -888 -328 -9
0 0 17 25 45 75 85 132 223 132 321 0 23 -9 95 -20 159 -25 143 -27 342 -5
446 22 102 66 190 122 238 44 39 49 41 112 41 66 -1 162 -18 212 -38 46 -19
98 -71 105 -107 13 -72 -73 -195 -171 -241 -58 -28 -97 -30 -120 -8 -18 18
-65 12 -65 -10 0 -22 119 -137 163 -157 57 -25 84 -24 140 9 158 91 244 269
235 484 -5 88 -9 104 -46 183 -23 48 -42 97 -42 108 1 45 44 101 115 149 39
26 72 47 75 47 3 1 6 -43 6 -97z m-5201 -41 c32 -14 48 -31 73 -79 68 -128 89
-239 57 -301 -45 -87 -252 -79 -350 13 -27 25 -35 41 -35 67 0 24 -6 38 -21
47 -12 7 -23 11 -25 9 -14 -13 -44 -150 -44 -197 0 -79 24 -114 108 -153 63
-30 73 -32 182 -32 102 0 123 3 187 28 83 33 198 110 234 158 14 19 38 58 54
87 16 29 38 59 49 65 34 19 164 13 221 -10 28 -11 59 -23 70 -27 16 -6 7 -14
-54 -46 -108 -57 -160 -113 -231 -250 -94 -182 -237 -323 -417 -412 l-87 -43
-111 1 c-78 1 -122 6 -150 18 -91 38 -436 249 -620 378 -85 60 -285 241 -285
258 0 3 32 1 71 -4 162 -23 290 23 440 156 226 200 397 288 564 288 56 0 92
-6 120 -19z m4948 -49 c-4 -31 3 -54 37 -123 40 -77 43 -91 48 -180 8 -158
-37 -288 -129 -374 -87 -81 -137 -92 -196 -40 -25 22 -26 24 -8 25 39 1 122
48 172 98 150 150 122 320 -63 386 -40 14 -155 34 -224 39 -30 2 -18 10 118
76 83 41 171 87 194 102 24 15 46 28 50 28 3 1 4 -16 1 -37z m-4521 -134 l67
-31 -42 -21 c-32 -16 -52 -37 -82 -88 -51 -84 -85 -121 -159 -170 -77 -50
-170 -78 -260 -79 -83 -1 -115 6 -177 37 -52 26 -59 37 -59 100 l0 45 38 -30
c82 -66 223 -98 319 -72 135 37 169 180 88 364 -20 45 -39 87 -41 94 -3 6 50
-18 118 -53 68 -36 153 -79 190 -96z m3988 -124 c-47 -51 -81 -118 -107 -214
-26 -93 -25 -377 1 -513 26 -135 19 -207 -28 -303 -39 -78 -119 -172 -185
-218 -39 -28 -100 -46 -286 -85 -102 -21 -321 -61 -337 -61 -5 0 30 27 79 60
98 66 134 112 184 233 40 96 66 202 79 316 11 101 9 134 -17 273 -20 107 -9
190 40 287 l32 63 190 63 c105 35 233 81 285 103 52 22 99 41 104 41 5 1 -10
-20 -34 -45z m-3385 -113 c83 -27 168 -53 188 -56 20 -4 37 -10 37 -14 0 -3
-32 -26 -71 -51 -98 -62 -241 -214 -333 -353 -104 -159 -176 -213 -320 -243
-40 -9 -107 -14 -156 -13 -82 3 -84 3 -90 -21 -5 -22 1 -29 64 -66 39 -22 116
-69 171 -104 55 -35 136 -86 180 -113 98 -60 81 -57 -170 33 -250 89 -655 262
-655 279 0 3 24 6 53 6 97 0 265 95 405 229 102 98 138 146 197 265 54 107
115 176 196 216 60 31 117 53 138 54 7 1 82 -21 166 -48z m2755 -76 c0 -2 -9
-26 -19 -53 -41 -105 -45 -158 -21 -298 16 -98 20 -147 15 -209 -13 -157 -64
-328 -129 -428 -41 -65 -124 -128 -253 -191 -119 -59 -157 -66 -497 -86 -154
-9 -164 -9 -335 21 -97 17 -195 33 -218 36 -24 3 -43 8 -43 12 0 3 23 17 51
31 28 14 80 51 115 83 83 76 127 163 155 307 27 142 53 229 100 328 83 178
176 273 298 302 29 7 46 3 105 -27 190 -96 254 -186 196 -281 -62 -101 -279
-158 -335 -88 -13 17 -31 26 -49 26 -31 0 -31 -2 10 -103 51 -129 115 -171
222 -149 170 36 311 179 377 381 15 45 17 75 12 168 l-6 113 29 33 c23 26 44
36 117 53 103 25 103 25 103 19z m-2304 -47 c93 -21 96 -23 136 -72 115 -144
121 -250 17 -311 -51 -30 -207 -29 -266 3 -43 23 -69 55 -58 72 7 11 -42 37
-51 27 -14 -14 -16 -109 -4 -174 22 -112 80 -153 221 -153 77 0 171 26 244 69
116 66 221 193 251 300 26 93 34 109 69 125 34 17 121 21 210 10 l51 -6 -62
-62 c-77 -77 -110 -141 -136 -264 -27 -128 -59 -206 -128 -311 -118 -178 -223
-269 -342 -294 -120 -25 -143 -28 -255 -28 -246 0 -420 64 -770 284 l-183 115
53 7 c189 24 301 94 405 255 128 198 254 325 396 399 69 37 80 37 202 9z
m2003 -48 c-7 -20 -7 -51 0 -99 36 -229 -153 -499 -363 -517 -33 -3 -56 0 -66
8 -17 14 -50 59 -50 68 0 3 30 5 68 6 157 3 311 122 312 243 0 78 -72 168
-187 233 l-58 33 85 12 c47 7 119 19 160 27 113 21 111 21 99 -14z m-1633 -16
l123 -17 -19 -26 c-10 -14 -26 -55 -35 -91 -9 -35 -28 -85 -42 -110 -43 -73
-133 -154 -219 -196 -68 -34 -86 -39 -168 -42 -118 -4 -154 12 -173 77 -7 25
-11 46 -9 48 2 3 23 -5 46 -17 88 -45 245 -37 328 17 107 70 109 216 5 352
l-26 34 33 -6 c18 -4 88 -14 156 -23z m994 -37 c0 -1 -26 -30 -58 -64 -105
-112 -188 -302 -237 -542 -13 -66 -36 -144 -51 -172 -51 -101 -167 -192 -304
-239 -48 -16 -55 -22 -58 -48 l-3 -30 85 -7 c99 -8 126 -23 33 -18 -294 18
-806 82 -752 94 17 4 71 15 120 24 107 20 157 46 244 129 154 147 261 335 296
518 27 143 80 228 191 304 l56 39 207 5 c113 3 212 7 219 8 6 1 12 1 12 -1z"/>
<path d="M6775 11054 c-143 -78 -153 -261 -20 -340 49 -28 135 -35 177 -14
134 70 149 256 27 337 -51 34 -138 42 -184 17z m154 -34 c96 -49 115 -178 37
-256 -77 -77 -200 -61 -254 34 -80 142 71 297 217 222z"/>
<path d="M7630 10857 c-19 -6 -51 -28 -72 -49 -67 -67 -74 -169 -16 -249 22
-31 26 -40 13 -35 -47 18 -255 68 -390 95 -912 179 -1849 59 -2690 -343 -829
-398 -1524 -1071 -1950 -1889 l-72 -137 5 54 c9 114 -73 206 -185 206 -116 0
-193 -78 -193 -195 0 -77 41 -140 113 -170 76 -31 163 -13 217 47 36 40 38 32
5 -31 -54 -108 -164 -406 -220 -601 -51 -176 -101 -438 -132 -685 -25 -200
-25 -750 0 -955 10 -80 21 -153 24 -164 3 -11 -13 1 -38 27 -90 93 -216 85
-295 -19 -26 -33 -29 -46 -29 -110 0 -65 3 -76 31 -111 36 -46 105 -83 154
-83 79 1 172 74 186 147 6 33 9 26 29 -73 138 -665 430 -1288 856 -1819 87
-109 102 -132 76 -118 -19 10 -55 17 -87 17 -65 1 -108 -21 -154 -77 -28 -36
-31 -45 -31 -112 0 -67 3 -77 31 -112 36 -46 105 -83 154 -83 70 1 155 59 179
123 14 36 14 107 1 144 -7 19 16 -1 78 -67 324 -346 794 -688 1237 -901 1188
-571 2560 -572 3733 -4 447 217 790 457 1141 800 373 363 650 750 877 1220
650 1351 542 2955 -284 4214 -266 405 -635 797 -1025 1090 -314 234 -709 449
-1072 582 -71 26 -123 50 -115 52 8 3 27 8 43 11 15 4 45 24 65 44 120 120 46
315 -123 328 -22 2 -56 -2 -75 -9z m140 -40 c50 -26 90 -90 90 -142 0 -18 -10
-51 -23 -75 -26 -50 -90 -90 -142 -90 -52 0 -116 40 -142 90 -13 24 -23 57
-23 75 0 18 10 51 23 75 26 50 90 90 142 90 18 0 51 -10 75 -23z m-1310 -372
c0 -2 -22 -16 -49 -30 -55 -27 -63 -44 -82 -160 -25 -166 -22 -962 8 -1787 l6
-178 -116 0 -116 0 -3 943 -3 942 -24 48 c-27 55 -116 140 -178 170 -24 12
-43 24 -43 28 0 11 229 26 423 27 97 1 177 0 177 -3z m300 -19 l105 -11 9 -36
c13 -53 -1 -127 -30 -156 -24 -24 -28 -25 -149 -22 l-124 4 4 -35 c3 -19 37
-449 75 -955 38 -506 71 -932 73 -947 2 -16 2 -28 1 -28 -2 0 -33 6 -71 14
-37 8 -111 20 -164 26 l-96 12 -6 137 c-31 652 -34 1708 -5 1856 l13 70 65 33
c37 19 64 39 62 46 -3 15 40 14 238 -8z m-949 -42 c82 -33 163 -87 196 -130
54 -71 52 -37 53 -1040 l0 -932 -126 -7 c-69 -4 -127 -5 -129 -4 -1 2 1 67 6
144 5 77 26 448 49 825 22 377 44 736 50 799 7 74 7 118 1 124 -16 16 -41 -1
-41 -27 0 -74 -169 -59 -245 21 -34 36 -65 96 -65 126 0 31 78 107 121 117 53
13 62 12 130 -16z m1239 1 c194 -33 467 -108 680 -187 142 -53 171 -68 129
-68 -14 0 -47 -7 -73 -16 -39 -14 -51 -23 -63 -53 -21 -47 -20 -164 1 -214 23
-54 84 -117 133 -139 l43 -19 -93 -127 c-905 -1251 -980 -1352 -1001 -1346
-12 3 -24 9 -27 13 -4 3 -39 427 -78 941 -39 514 -72 945 -74 958 -2 22 0 23
103 25 91 2 109 5 137 25 40 28 57 78 56 165 -1 59 1 67 15 63 10 -3 60 -12
112 -21z m-1519 -44 l-31 -38 22 -64 c42 -126 162 -209 284 -196 38 4 54 2 54
-6 0 -14 -62 -1044 -90 -1501 -19 -307 -23 -332 -55 -323 -11 4 -46 43 -807
905 l-487 551 52 37 c135 97 156 138 113 226 -14 29 -33 63 -42 76 -16 22 -16
22 82 68 235 109 487 198 738 258 153 37 177 43 189 45 5 0 -5 -16 -22 -38z
m2486 -264 c3 -4 0 -13 -7 -22 -10 -12 -7 -21 20 -52 87 -98 125 -260 81 -344
-26 -49 -968 -1528 -986 -1548 -11 -11 -31 -4 -124 46 l-111 59 536 740 c295
406 544 744 554 751 28 20 32 51 8 64 -18 10 -24 8 -38 -11 -14 -19 -23 -22
-50 -17 -101 21 -172 158 -141 274 12 42 19 47 96 67 26 6 154 1 162 -7z m162
-78 c238 -126 454 -267 634 -413 55 -45 109 -88 120 -98 l21 -16 -24 -52 c-13
-28 -42 -67 -63 -87 -51 -46 -71 -42 -191 40 l-93 63 -464 -868 -464 -868 -65
64 c-36 35 -92 85 -126 112 l-60 50 84 144 c384 659 773 1277 927 1475 94 120
90 118 171 107 38 -5 72 -8 77 -5 12 7 8 43 -5 43 -7 0 -42 5 -78 10 -74 11
-87 5 -148 -62 -147 -162 -543 -784 -1009 -1585 l-59 -102 -25 17 c-13 9 -59
37 -101 62 l-77 46 485 760 c267 417 494 777 506 798 49 95 27 232 -57 361
-24 36 -40 65 -37 65 3 0 57 -28 121 -61z m-3651 -53 c33 -49 39 -83 23 -115
-6 -10 -53 -48 -106 -85 l-95 -68 59 -67 c32 -36 327 -369 654 -740 l595 -674
-92 -37 c-50 -21 -120 -52 -156 -70 l-64 -32 -29 33 c-104 124 -466 575 -628
784 -320 412 -509 678 -553 782 l-18 41 31 58 c17 32 31 62 31 68 0 15 281
177 300 174 8 -2 30 -25 48 -52z m-440 -210 l-21 -44 30 -63 c79 -169 479
-705 1012 -1357 91 -112 172 -211 179 -221 11 -16 2 -25 -86 -83 l-98 -65
-538 713 c-296 393 -556 729 -577 748 -55 50 -131 70 -239 63 -47 -3 -94 -8
-105 -12 -25 -8 28 41 156 146 102 82 289 218 301 219 4 0 -2 -20 -14 -44z
m5203 -593 c154 -169 150 -162 86 -152 -49 8 -53 7 -83 -22 -18 -17 -45 -54
-60 -82 -25 -45 -29 -63 -28 -127 0 -80 15 -123 61 -172 24 -25 24 -27 7 -36
-11 -5 -354 -186 -764 -402 -410 -216 -753 -397 -762 -402 -12 -6 0 24 35 90
553 1039 814 1522 820 1522 4 0 35 -18 68 -41 90 -61 125 -73 170 -60 43 13
100 72 131 136 l21 43 93 -86 c51 -48 144 -142 205 -209z m-5371 210 c49 -26
86 -73 600 -753 l547 -725 -90 -85 c-49 -47 -93 -86 -96 -87 -8 -2 -979 1464
-996 1503 -17 42 -32 50 -56 28 -17 -15 -18 -19 -4 -34 20 -22 19 -32 -6 -64
-26 -33 -81 -61 -134 -70 -47 -8 -120 12 -171 46 -35 23 -35 24 -29 77 4 29
15 72 25 95 19 45 55 83 64 68 4 -6 29 -3 63 9 37 11 89 18 144 18 76 1 93 -2
139 -26z m-432 -279 c64 -42 104 -54 177 -54 70 0 151 34 185 78 12 15 24 22
29 16 28 -29 970 -1456 959 -1452 -20 8 -378 155 -1043 428 -104 43 -291 119
-415 170 -124 51 -227 94 -229 96 -3 3 15 44 39 93 47 96 52 136 24 179 -26
39 -52 58 -121 88 l-61 28 90 119 c50 65 130 161 177 214 47 53 97 110 111
127 l25 31 3 -66 3 -65 47 -30z m5931 -140 c60 -18 112 -59 117 -94 1 -14 8
-52 14 -85 24 -119 -5 -240 -71 -301 -32 -29 -1582 -974 -1598 -974 -14 0
-143 202 -134 210 16 16 1604 850 1617 850 8 0 23 8 35 18 18 15 19 19 6 36
-13 17 -18 18 -40 8 -37 -17 -59 -2 -91 63 -38 78 -31 154 20 231 40 60 47 62
125 38z m260 -287 c72 -108 211 -344 211 -358 0 -4 -13 -1 -30 7 -27 14 -35
13 -101 -10 -169 -59 -728 -395 -1453 -873 -153 -101 -279 -183 -280 -181 -64
100 -117 201 -110 207 5 5 360 221 789 481 429 260 793 484 808 499 63 58 102
186 90 297 -3 27 -3 47 0 44 2 -3 37 -53 76 -113z m-6582 16 c56 -26 93 -64
93 -94 0 -10 -25 -66 -56 -125 -30 -58 -53 -108 -51 -110 2 -3 224 -95 493
-205 269 -111 593 -244 719 -296 127 -52 293 -119 370 -150 77 -31 141 -57
143 -59 2 -1 -18 -29 -44 -61 -26 -32 -70 -92 -97 -133 -27 -41 -54 -74 -61
-72 -48 13 -749 343 -1096 516 -312 156 -491 254 -588 323 l-64 45 4 74 c3 66
1 74 -17 78 -10 3 -22 3 -24 0 -3 -3 -7 -39 -9 -80 l-4 -74 43 -44 c104 -102
685 -403 1494 -773 127 -58 233 -108 237 -112 3 -3 -16 -52 -43 -109 l-50
-103 -790 398 -790 398 -82 0 c-72 0 -90 -4 -147 -32 -36 -17 -85 -49 -109
-69 -51 -44 -51 -46 10 108 97 244 206 459 347 681 83 131 72 126 169 80z
m-751 -199 c46 -22 84 -87 84 -144 0 -155 -208 -220 -296 -91 -33 49 -34 133
-1 182 43 64 139 88 213 53z m7543 -240 c47 -32 58 -46 95 -127 24 -51 56
-125 71 -165 l29 -74 -24 -18 c-38 -29 -94 -42 -123 -29 -22 10 -95 119 -128
192 -7 15 -15 27 -18 27 -3 -1 -366 -259 -806 -575 -440 -316 -803 -575 -807
-575 -5 0 -8 8 -8 19 0 21 -57 166 -94 239 l-25 50 257 170 c805 531 1416 894
1517 901 6 1 34 -15 64 -35z m-3444 -164 c356 -40 685 -185 949 -418 630 -558
753 -1500 289 -2202 -253 -381 -634 -636 -1093 -731 -101 -21 -141 -24 -325
-23 -177 0 -227 4 -315 22 -214 45 -434 134 -603 245 -172 112 -372 301 -390
369 -5 19 -13 28 -22 25 -13 -5 -93 108 -158 223 -42 74 -97 210 -113 280 -9
36 -20 70 -25 76 -16 20 -49 207 -58 329 -26 381 74 753 287 1070 345 512 969
803 1577 735z m3378 -179 c25 -43 58 -88 73 -100 38 -30 106 -28 163 4 24 14
45 24 46 23 10 -13 107 -338 135 -453 18 -77 60 -298 57 -301 -2 -2 -19 8 -39
22 l-35 25 -59 -20 c-32 -12 -74 -34 -94 -49 -74 -60 -119 -174 -100 -256 l8
-38 -76 6 c-43 3 -230 15 -417 26 -187 11 -486 29 -665 40 -179 11 -385 23
-458 26 -73 4 -131 10 -130 15 3 8 1529 1107 1539 1108 4 1 27 -34 52 -78z
m-6143 -428 c432 -217 786 -396 788 -398 3 -2 -66 -237 -71 -242 -5 -4 -1502
870 -1530 893 -35 30 -54 30 -63 2 -5 -16 -1 -26 15 -36 40 -27 18 -107 -45
-162 -44 -38 -132 -64 -190 -55 -53 8 -67 29 -85 128 -13 69 -2 123 22 115 6
-2 31 16 57 39 86 79 200 126 282 115 19 -2 388 -182 820 -399z m-15 -273
c391 -226 714 -416 719 -420 5 -5 -7 -11 -25 -14 -45 -7 -1733 -136 -1781
-136 l-38 0 0 100 c0 117 -12 149 -65 174 -19 10 -60 18 -91 19 l-55 2 6 50
c26 199 111 584 125 568 4 -4 15 -29 25 -54 19 -53 34 -59 134 -59 120 0 221
67 257 168 l18 51 31 -18 c16 -11 350 -204 740 -431z m6621 -192 c47 -51 48
-144 1 -240 -42 -88 -94 -151 -151 -181 l-41 -22 -945 0 -945 0 -6 125 c-4 69
-6 126 -5 128 2 1 151 -7 332 -18 181 -11 484 -29 674 -40 555 -33 802 -50
848 -56 40 -6 42 -6 42 19 0 21 -6 28 -32 35 -27 7 -35 15 -42 46 -24 95 51
213 159 251 36 12 42 11 65 -5 14 -10 35 -29 46 -42z m-2157 -108 c0 -10 -3
-8 -9 5 -12 27 -12 43 0 25 5 -8 9 -22 9 -30z m-5689 -33 c54 -19 62 -44 55
-179 l-6 -117 48 5 c72 8 1837 143 1839 141 1 -1 -2 -24 -6 -52 -5 -27 -12
-100 -16 -161 l-7 -111 -96 -7 c-458 -29 -1706 -32 -1841 -4 -61 12 -66 15
-89 57 l-24 44 12 190 c6 104 14 194 17 198 7 13 73 10 114 -4z m7905 -537
c-6 -88 -10 -110 -18 -93 -24 54 -122 64 -642 70 -389 5 -847 -4 -1322 -24
l-153 -6 0 121 0 122 959 2 959 3 58 40 c39 27 73 63 104 108 l45 67 8 -147
c5 -82 6 -200 2 -263z m-7910 0 c184 -26 1125 -23 1771 6 l141 7 7 -74 c4 -41
9 -93 12 -116 l6 -42 -923 -3 -924 -3 -48 -22 c-26 -12 -69 -45 -96 -73 l-49
-51 -6 48 c-6 45 -26 309 -26 345 0 15 3 15 28 3 15 -8 63 -19 107 -25z m7435
-70 c151 -4 306 -14 343 -21 68 -13 69 -13 94 -63 23 -45 25 -58 20 -126 -9
-108 -37 -293 -46 -303 -13 -14 -99 4 -126 25 -24 19 -25 23 -25 149 l0 130
-52 -6 c-71 -8 -1862 -145 -1897 -145 l-28 0 13 50 c16 62 34 188 34 239 l0
38 118 6 c146 8 779 27 1007 30 94 1 193 3 220 4 28 1 174 -2 325 -7z m-5467
-307 l26 -108 -22 -18 c-27 -22 -59 -21 -792 23 -806 48 -977 59 -1032 66 -52
7 -53 6 -53 -20 0 -21 5 -26 24 -26 54 0 74 -95 37 -176 -23 -50 -89 -108
-146 -128 -51 -17 -42 -35 -80 168 l-25 138 22 36 c49 79 99 122 168 143 14 4
435 8 936 8 l911 1 26 -107z m5677 -55 c0 -62 5 -113 13 -127 20 -41 62 -64
122 -69 52 -4 55 -6 55 -32 0 -39 -83 -359 -124 -479 -20 -57 -36 -106 -36
-109 0 -3 -9 3 -21 14 -33 29 -188 27 -246 -3 -57 -31 -109 -87 -129 -139 -9
-25 -20 -43 -24 -42 -36 15 -1507 934 -1499 937 5 1 427 36 937 76 510 40 933
73 940 74 9 1 12 -26 12 -101z m-6925 -68 c176 -10 491 -28 700 -40 209 -12
392 -24 407 -28 23 -6 -56 -57 -650 -419 l-676 -412 -44 90 c-31 65 -51 95
-75 109 -58 36 -132 22 -225 -42 -24 -16 -45 -28 -46 -26 -12 14 -140 439
-133 443 1 1 26 10 55 21 69 24 126 73 159 138 22 41 27 65 27 124 l0 74 91
-7 c49 -3 234 -14 410 -25z m4956 -7 c-12 -20 -14 -14 -5 12 4 9 9 14 11 11 3
-2 0 -13 -6 -23z m-6104 -19 c90 -68 85 -197 -10 -268 -21 -16 -43 -21 -87
-21 -66 0 -99 18 -137 75 -27 39 -31 116 -8 160 16 32 68 75 100 83 40 11 108
-3 142 -29z m6933 -484 c421 -260 770 -478 776 -486 6 -7 22 -18 37 -23 22 -9
27 -7 33 11 5 16 0 27 -15 39 -11 9 -21 28 -21 41 0 37 42 100 88 133 39 27
53 30 128 34 l83 3 17 -34 c16 -33 15 -35 -38 -158 l-53 -124 -63 -34 c-93
-50 -169 -55 -254 -15 -73 35 -1589 851 -1601 862 -10 10 95 233 108 227 6 -2
355 -216 775 -476z m-4502 432 c17 -5 34 -34 73 -122 27 -63 52 -120 55 -125
5 -12 -22 -28 -411 -240 -567 -310 -1039 -545 -1203 -600 -92 -32 -98 -31
-171 32 -37 31 -39 32 -55 14 -17 -18 -15 -21 50 -70 37 -28 75 -51 84 -51
109 0 756 319 1588 782 79 44 145 78 147 76 20 -21 125 -193 119 -195 -57 -21
-1529 -780 -1557 -803 -65 -54 -107 -165 -107 -283 l-1 -52 -22 29 c-12 16
-64 94 -115 175 -112 177 -236 424 -293 584 -47 134 -50 123 45 172 59 29 116
33 139 8 8 -10 37 -62 63 -115 26 -54 50 -98 54 -98 3 0 335 200 736 445 401
244 736 444 744 444 8 -1 25 -4 38 -7z m4422 -673 l825 -444 75 0 c56 0 87 6
124 23 27 12 51 21 52 19 3 -3 -143 -268 -183 -333 -11 -18 -13 -18 -40 7
-113 105 -746 452 -1490 816 l-312 152 57 105 c31 57 59 103 62 102 3 -2 376
-203 830 -447z m-390 -90 c495 -249 778 -399 990 -525 143 -85 250 -162 250
-179 0 -26 -261 -385 -280 -385 -16 0 -50 53 -50 77 0 14 25 70 56 125 31 55
52 103 48 107 -8 7 -1558 695 -1675 743 -37 16 -51 28 -65 60 -12 26 -15 44
-8 52 5 7 31 42 57 77 27 35 57 80 69 100 l20 37 57 -25 c31 -14 270 -132 531
-264z m-3678 183 c21 -26 58 -70 83 -98 l45 -51 -127 -56 c-1056 -461 -1489
-647 -1503 -647 -24 0 -42 -24 -34 -44 5 -14 14 -16 43 -11 29 5 41 2 54 -12
27 -31 47 -90 47 -140 -1 -83 -66 -193 -115 -193 -50 0 -114 32 -148 73 l-34
42 1 125 c1 141 16 190 74 245 25 23 1550 813 1572 814 3 0 22 -21 42 -47z
m2947 -27 c-18 -25 -36 -45 -41 -45 -5 0 8 20 29 45 20 25 39 45 41 45 2 0
-11 -20 -29 -45z m-3254 -917 c-263 -414 -481 -757 -486 -762 -5 -5 -40 15
-83 48 -114 87 -166 88 -248 4 l-50 -52 -152 155 c-83 85 -170 177 -193 205
l-42 51 48 -5 c47 -4 48 -3 89 44 48 55 82 136 82 193 0 51 -23 124 -49 157
-12 15 -18 31 -14 35 4 3 211 95 458 202 248 108 599 261 780 340 182 79 332
143 334 141 2 -1 -212 -342 -474 -756z m3189 734 l57 -28 286 -544 c156 -300
341 -655 410 -790 69 -135 127 -246 128 -248 2 -2 12 1 23 7 18 9 19 15 9 41
-10 26 -8 32 13 56 33 34 50 43 106 53 93 17 224 -42 224 -100 0 -25 -16 -42
-107 -115 l-108 -85 -85 4 c-91 4 -133 19 -183 66 -24 21 -956 1560 -972 1603
-3 8 22 31 68 60 39 26 72 48 73 48 0 0 26 -13 58 -28z m-2571 -89 c57 -43
116 -87 131 -98 l27 -20 -142 -205 c-460 -665 -829 -1158 -984 -1317 -81 -84
-97 -88 -166 -45 -46 30 -294 226 -303 241 -8 13 55 82 88 96 40 17 60 9 163
-72 78 -61 87 -65 98 -49 8 10 231 361 497 781 265 420 484 764 485 764 2 1
49 -34 106 -76z m3481 -315 c424 -187 787 -348 807 -357 l36 -16 -48 -91 c-27
-50 -49 -103 -49 -118 0 -34 24 -80 52 -100 l21 -15 -38 -48 c-21 -26 -114
-123 -205 -215 l-167 -167 -50 48 c-58 56 -121 81 -202 81 -60 0 -130 -26
-168 -62 -13 -12 -25 -20 -27 -17 -2 2 -160 303 -351 669 -191 366 -357 684
-370 708 -13 23 -21 42 -18 42 3 0 353 -154 777 -342z m-674 -498 c259 -432
484 -798 498 -813 36 -38 116 -75 180 -83 l53 -7 -68 -45 c-37 -25 -115 -74
-173 -109 l-105 -63 -16 47 c-57 167 -393 737 -822 1396 -43 64 -111 168 -151
231 l-75 115 97 64 c53 36 100 62 104 59 3 -4 218 -360 478 -792z m-2497 618
l104 -53 -554 -740 c-608 -812 -592 -788 -579 -907 l7 -60 -48 28 c-49 28
-131 78 -215 130 -26 16 -48 32 -48 36 0 4 15 19 34 33 114 87 552 666 1065
1408 67 97 124 177 126 177 2 0 51 -24 108 -52z m1937 -218 c190 -292 427
-667 547 -865 268 -445 365 -641 336 -681 -16 -21 -164 -95 -370 -185 l-43
-18 -15 29 c-20 39 -19 93 3 112 9 9 59 40 110 69 51 29 91 57 89 63 -5 13
-1093 1544 -1114 1568 -14 16 -13 18 8 27 153 63 223 94 251 111 18 11 35 16
39 12 3 -4 75 -113 159 -242z m-1665 77 c50 -33 92 -61 94 -63 5 -5 -1147
-1365 -1185 -1399 -19 -16 -34 -37 -34 -46 0 -24 30 -32 50 -14 21 19 43 19
78 1 66 -34 105 -105 105 -192 0 -102 3 -102 -173 -20 -176 81 -182 87 -188
196 -3 57 0 72 25 117 15 28 271 376 567 772 410 547 543 718 555 713 9 -3 57
-32 106 -65z m1714 -774 c298 -420 540 -767 537 -771 -3 -5 -41 -30 -85 -55
-109 -64 -133 -115 -96 -204 12 -29 13 -38 3 -44 -52 -32 -599 -189 -659 -189
-12 0 -20 11 -24 33 -32 150 -152 245 -296 235 l-58 -4 5 55 c2 31 22 360 44
731 61 1044 58 1006 75 989 7 -8 257 -357 554 -776z m-1583 749 c-4 -3 -14 2
-24 12 -16 18 -16 18 6 6 13 -6 21 -14 18 -18z m964 12 c0 -21 -53 -908 -85
-1414 -13 -217 -27 -406 -30 -420 -7 -33 6 -51 33 -43 16 4 22 13 22 33 0 33
20 43 87 42 91 -2 173 -63 208 -157 18 -45 18 -47 -2 -66 -15 -16 -48 -24
-151 -37 -151 -19 -160 -17 -248 61 -86 75 -78 -14 -84 1034 l-5 932 85 16
c47 8 99 19 115 24 45 14 55 13 55 -5z m-683 -40 l92 -7 5 -41 c8 -56 24 -616
32 -1046 6 -368 -6 -785 -26 -878 -18 -83 -31 -88 -202 -73 -78 6 -174 17
-215 23 l-73 10 0 45 c0 33 6 50 25 68 23 24 30 25 151 25 l126 0 -6 63 c-3
34 -35 445 -71 912 -35 468 -67 869 -69 891 l-5 42 72 -14 c40 -8 113 -17 164
-20z m383 -918 c0 -666 3 -922 12 -947 17 -52 63 -114 108 -147 l41 -30 -33
-6 c-37 -7 -367 -11 -373 -5 -2 3 0 22 5 44 23 103 30 283 30 718 0 426 -10
910 -25 1174 l-6 102 43 4 c24 2 78 4 121 5 l77 2 0 -914z m-595 42 c35 -453
66 -851 70 -885 l6 -63 -97 0 c-120 0 -158 -16 -185 -74 -10 -23 -19 -56 -19
-73 0 -18 -2 -33 -4 -33 -2 0 -41 7 -87 16 -198 37 -477 115 -661 186 l-77 29
6 77 c3 45 1 94 -6 118 -15 57 -73 128 -120 151 -22 10 -39 21 -38 25 3 13
1142 1356 1146 1353 1 -2 32 -374 66 -827z m-2827 -25 c98 -72 97 -204 -1
-277 -45 -33 -132 -29 -180 7 -48 36 -67 75 -67 132 0 70 28 114 95 150 39 21
117 15 153 -12z"/>
<path d="M6105 8010 c-417 -44 -818 -256 -1084 -573 -184 -220 -306 -474 -363
-759 -29 -146 -32 -441 -6 -583 131 -701 661 -1227 1353 -1345 114 -19 154
-22 320 -17 139 4 215 11 283 26 586 130 1051 545 1232 1099 61 188 74 276 74
507 1 181 -2 226 -22 322 -170 840 -944 1412 -1787 1323z m317 -40 c807 -78
1423 -729 1455 -1535 14 -358 -88 -704 -295 -995 -86 -121 -251 -286 -372
-373 -176 -125 -407 -225 -619 -268 -127 -26 -377 -36 -507 -19 -533 66 -989
385 -1234 862 -314 610 -206 1344 269 1841 335 351 825 534 1303 487z"/>
<path d="M6155 7767 c-23 -23 -35 -45 -36 -63 0 -26 -1 -27 -9 -8 -13 34 -59
64 -97 64 -27 0 -43 -8 -70 -35 -32 -32 -35 -39 -30 -78 10 -70 77 -112 138
-86 33 13 68 61 70 94 0 14 2 16 6 5 11 -30 47 -60 79 -66 37 -7 70 7 100 43
20 24 22 24 28 6 7 -22 56 -53 85 -53 34 0 72 22 87 51 58 113 -73 213 -162
124 l-25 -25 -22 26 c-15 17 -36 27 -64 31 -39 5 -46 2 -78 -30z m126 -16 c17
-18 29 -40 29 -56 0 -16 -12 -38 -29 -56 -18 -17 -40 -29 -56 -29 -58 0 -106
87 -72 131 36 46 88 50 128 10z m194 4 c46 -45 26 -127 -34 -140 -33 -7 -85
15 -95 40 -22 60 16 125 74 125 19 0 40 -9 55 -25z m-404 -44 c17 -18 29 -40
29 -56 0 -16 -12 -38 -29 -56 -18 -17 -40 -29 -56 -29 -16 0 -38 12 -56 29
-37 38 -38 79 -3 115 36 35 77 34 115 -3z"/>
<path d="M6578 7744 c-35 -19 -48 -43 -48 -91 0 -84 101 -131 163 -76 16 15
17 14 17 -15 0 -21 10 -43 29 -64 25 -28 36 -33 74 -33 52 0 81 21 97 70 31
94 -89 174 -162 108 -17 -15 -18 -14 -18 16 0 43 -14 68 -50 86 -36 19 -67 19
-102 -1z m107 -29 c26 -25 33 -72 15 -104 -16 -31 -65 -46 -100 -31 -37 15
-50 37 -50 84 0 68 86 101 135 51z m181 -89 c73 -62 -5 -179 -89 -134 -32 17
-46 39 -46 73 0 73 80 109 135 61z"/>
<path d="M5765 7701 c-33 -14 -56 -47 -62 -90 -5 -37 -2 -44 31 -77 33 -33 40
-36 77 -31 23 3 52 15 65 28 80 75 -9 211 -111 170z m96 -40 c17 -18 29 -40
29 -56 0 -32 -49 -85 -79 -85 -50 0 -91 41 -91 91 0 30 53 79 85 79 16 0 38
-12 56 -29z"/>
<path d="M5539 7572 c-26 -23 -32 -36 -32 -71 0 -61 40 -101 101 -101 61 0
102 40 102 100 0 91 -102 133 -171 72z m126 -17 c50 -49 17 -135 -51 -135 -47
0 -70 14 -83 50 -28 83 72 147 134 85z"/>
<path d="M6939 7531 c-23 -23 -29 -38 -29 -71 0 -33 6 -48 29 -71 23 -23 38
-29 71 -29 33 0 48 6 71 29 23 23 29 38 29 71 0 33 -6 48 -29 71 -23 23 -38
29 -71 29 -33 0 -48 -6 -71 -29z m128 -13 c51 -48 15 -138 -56 -138 -47 0 -81
32 -81 79 0 72 84 109 137 59z"/>
<path d="M5392 7478 c-36 -10 -72 -57 -72 -96 0 -102 141 -140 193 -52 22 37
21 68 -3 108 -11 17 -21 32 -22 32 -2 0 -17 4 -33 8 -17 5 -45 5 -63 0z m85
-34 c29 -18 38 -57 23 -95 -15 -35 -37 -49 -80 -49 -64 0 -101 75 -64 128 29
42 71 48 121 16z"/>
<path d="M7125 7387 c-44 -44 -48 -91 -9 -136 50 -60 140 -46 171 26 27 66
-12 130 -84 140 -39 5 -46 2 -78 -30z m121 -11 c21 -18 28 -32 28 -61 0 -43
-39 -85 -79 -85 -38 0 -85 46 -85 84 0 74 80 111 136 62z"/>
<path d="M6143 7375 c-106 -19 -204 -54 -309 -109 -254 -135 -427 -357 -506
-649 -32 -119 -32 -365 0 -484 80 -297 259 -522 520 -656 453 -233 999 -100
1291 313 130 185 184 355 184 585 0 230 -54 400 -184 585 -139 197 -341 336
-578 397 -122 31 -299 39 -418 18z m332 -41 c272 -47 497 -194 649 -422 318
-478 151 -1129 -357 -1397 -474 -250 -1045 -75 -1313 401 -166 296 -148 698
45 990 161 243 395 389 701 437 61 10 192 6 275 -9z"/>
<path d="M6207 7210 c-227 -28 -443 -155 -573 -337 -55 -75 -116 -206 -138
-293 -55 -212 -12 -471 110 -656 51 -79 174 -200 254 -252 182 -118 423 -158
645 -107 97 22 257 103 338 169 303 252 390 690 205 1036 -163 305 -500 481
-841 440z m308 -84 c207 -58 397 -217 490 -410 56 -118 69 -183 70 -341 0
-127 -3 -148 -28 -227 -108 -327 -395 -538 -733 -539 -58 0 -132 7 -175 17
-376 84 -636 442 -598 824 10 102 26 162 65 248 102 224 298 383 538 438 81
18 289 12 371 -10z"/>
<path d="M5214 7311 c-44 -27 -60 -77 -40 -126 15 -35 15 -36 -4 -30 -30 9
-86 -12 -104 -40 -20 -31 -21 -94 0 -123 15 -22 15 -22 -26 -22 -30 0 -47 -6
-65 -24 -68 -68 -25 -176 70 -176 91 0 138 107 75 170 -18 18 -18 18 14 13 39
-6 90 17 107 48 11 21 9 80 -5 110 -5 12 0 14 29 11 29 -4 40 1 70 31 45 45
48 92 8 137 -36 40 -86 48 -129 21z m89 -13 c31 -16 46 -39 47 -70 0 -40 -9
-57 -41 -73 -39 -21 -64 -19 -95 9 -73 62 5 179 89 134z m-114 -173 c49 -25
57 -90 16 -130 -49 -50 -135 -17 -135 51 0 77 54 113 119 79z m-82 -201 c50
-50 10 -134 -64 -134 -44 0 -83 37 -83 80 0 72 94 107 147 54z"/>
<path d="M7279 7231 c-53 -53 -34 -137 37 -167 29 -12 39 -12 68 0 106 44 79
196 -34 196 -33 0 -48 -6 -71 -29z m128 -13 c25 -23 31 -74 13 -108 -12 -22
-64 -42 -88 -33 -64 23 -85 104 -36 142 35 27 81 27 111 -1z"/>
<path d="M7428 7063 c-65 -40 -64 -138 2 -176 35 -21 62 -21 100 -2 36 18 52
47 52 90 0 43 -16 72 -52 90 -37 19 -68 19 -102 -2z m107 -26 c39 -33 39 -91
1 -123 -31 -28 -56 -30 -95 -9 -31 16 -41 33 -41 71 0 73 80 109 135 61z"/>
<path d="M7489 6811 c-23 -23 -29 -38 -29 -71 0 -33 6 -48 29 -71 23 -23 38
-29 71 -29 33 0 48 6 71 29 23 23 29 38 29 71 0 33 -6 48 -29 71 -23 23 -38
29 -71 29 -33 0 -48 -6 -71 -29z m128 -13 c51 -48 15 -138 -56 -138 -47 0 -81
32 -81 79 0 72 84 109 137 59z"/>
<path d="M4918 6725 c-91 -51 -63 -178 41 -192 36 -5 44 -2 76 30 27 27 35 43
35 71 0 74 -88 127 -152 91z m103 -34 c31 -31 36 -55 18 -94 -12 -27 -47 -47
-80 -47 -30 0 -79 53 -79 85 0 35 50 85 85 85 16 0 38 -12 56 -29z"/>
<path d="M7529 6601 c-23 -23 -29 -38 -29 -71 0 -33 6 -48 29 -71 23 -23 38
-29 71 -29 33 0 48 6 71 29 23 23 29 38 29 71 0 33 -6 48 -29 71 -23 23 -38
29 -71 29 -33 0 -48 -6 -71 -29z m128 -13 c51 -48 15 -138 -56 -138 -47 0 -81
32 -81 79 0 72 84 109 137 59z"/>
<path d="M4894 6482 c-87 -70 -36 -195 76 -183 53 6 97 68 85 121 -15 66 -111
103 -161 62z m114 -22 c30 -28 36 -62 18 -98 -40 -78 -156 -48 -156 41 0 65
90 102 138 57z"/>
<path d="M7529 6351 c-36 -36 -40 -95 -9 -134 l20 -25 -30 -7 c-41 -9 -80 -58
-80 -102 0 -27 8 -43 35 -70 32 -32 40 -35 77 -30 84 11 121 91 74 160 l-25
37 25 0 c15 0 38 12 55 29 23 23 29 38 29 71 0 33 -6 48 -29 71 -23 23 -38 29
-71 29 -33 0 -48 -6 -71 -29z m128 -13 c51 -48 15 -138 -56 -138 -72 0 -109
86 -61 138 28 30 86 30 117 0z m-66 -197 c17 -18 29 -40 29 -56 0 -32 -50 -85
-80 -85 -48 0 -89 38 -90 83 0 37 49 87 85 87 16 0 38 -12 56 -29z"/>
<path d="M4930 6273 c-85 -31 -88 -150 -6 -190 42 -20 79 -11 117 27 42 41 40
91 -5 136 -33 33 -66 42 -106 27z m73 -25 c32 -16 46 -39 47 -71 0 -37 -49
-87 -85 -87 -16 0 -38 12 -56 29 -17 18 -29 40 -29 56 0 32 50 85 80 85 12 0
31 -5 43 -12z"/>
<path d="M4988 6051 c-45 -40 -46 -96 -3 -141 16 -16 37 -30 47 -30 24 0 23
-13 -2 -35 -29 -27 -27 -95 4 -132 21 -24 32 -28 76 -28 44 0 55 4 76 28 35
41 33 104 -3 139 -16 14 -36 28 -46 31 -17 6 -16 9 4 36 17 24 21 38 16 73
-12 86 -103 118 -169 59z m127 -16 c49 -48 17 -135 -50 -135 -48 0 -64 8 -81
42 -43 83 65 160 131 93z m34 -180 c33 -16 41 -33 41 -80 0 -40 -38 -75 -80
-75 -86 0 -112 116 -35 158 27 15 41 15 74 -3z"/>
<path d="M7404 5970 c-34 -13 -64 -59 -64 -97 0 -44 54 -103 94 -103 107 0
151 137 62 191 -33 20 -58 23 -92 9z m92 -34 c58 -49 20 -146 -57 -146 -41 0
-79 39 -79 83 0 75 80 112 136 63z"/>
<path d="M7315 5753 c-59 -15 -100 -86 -76 -132 11 -19 9 -21 -14 -21 -34 0
-82 -25 -95 -49 -5 -11 -10 -38 -10 -61 0 -94 111 -133 177 -62 21 23 24 34
20 75 -4 47 -4 47 27 47 74 1 123 97 80 159 -14 19 -75 54 -86 50 -2 -1 -12
-4 -23 -6z m83 -49 c47 -53 10 -134 -62 -134 -26 0 -40 7 -60 31 -14 17 -26
37 -26 44 0 30 26 69 55 81 37 16 63 10 93 -22z m-115 -155 c25 -31 22 -85 -8
-114 -67 -68 -171 20 -124 106 23 43 99 47 132 8z"/>
<path d="M5195 5678 c-59 -32 -73 -105 -30 -156 33 -39 74 -48 118 -27 101 48
66 196 -46 195 -12 0 -31 -6 -42 -12z m100 -30 c49 -42 28 -129 -34 -143 -33
-7 -85 15 -95 40 -33 88 60 162 129 103z"/>
<path d="M5365 5540 c-28 -11 -61 -50 -68 -79 -8 -31 15 -84 44 -105 46 -31
119 -14 145 35 31 60 9 119 -52 145 -38 16 -41 16 -69 4z m93 -42 c31 -29 30
-81 -3 -113 -61 -62 -167 7 -134 87 24 57 89 70 137 26z"/>
<path d="M6979 5421 c-23 -23 -29 -38 -29 -71 0 -33 6 -48 29 -71 23 -23 38
-29 71 -29 33 0 48 6 71 29 23 23 29 38 29 71 0 33 -6 48 -29 71 -23 23 -38
29 -71 29 -33 0 -48 -6 -71 -29z m128 -13 c51 -48 15 -138 -56 -138 -47 0 -81
32 -81 79 0 72 84 109 137 59z"/>
<path d="M5498 5383 c-42 -44 -41 -101 1 -144 23 -23 38 -29 71 -29 33 0 48 6
71 29 65 66 20 171 -73 171 -35 0 -50 -6 -70 -27z m130 -16 c31 -28 30 -80 -3
-112 -44 -45 -116 -26 -138 37 -11 30 13 79 46 93 36 15 64 9 95 -18z"/>
<path d="M6779 5291 c-65 -66 -20 -171 73 -171 60 0 103 42 103 101 0 89 -113
133 -176 70z m120 -1 c31 -16 46 -65 31 -100 -15 -37 -37 -50 -84 -50 -68 0
-101 86 -51 135 25 26 72 33 104 15z"/>
<path d="M5701 5284 c-56 -47 -50 -126 11 -164 43 -26 68 -25 112 5 l36 24 0
-25 c0 -15 12 -38 29 -55 53 -52 137 -34 167 36 16 39 9 72 -24 108 -33 35
-96 38 -136 6 l-26 -20 0 21 c0 12 -15 37 -34 56 -43 43 -90 46 -135 8z m110
-7 c21 -16 39 -51 39 -77 0 -30 -53 -80 -85 -80 -32 0 -85 50 -85 80 0 49 38
89 85 89 17 0 37 -5 46 -12z m225 -103 c35 -84 -67 -154 -131 -89 -33 32 -34
84 -2 112 45 43 110 31 133 -23z"/>
<path d="M6559 5211 c-64 -65 -20 -171 71 -171 58 0 100 42 100 100 0 33 -6
48 -29 71 -23 23 -38 29 -71 29 -33 0 -48 -6 -71 -29z m129 -14 c51 -47 14
-137 -57 -137 -95 0 -112 130 -21 163 22 8 52 -2 78 -26z"/>
<path d="M6152 5198 c-36 -10 -72 -57 -72 -96 0 -58 48 -102 111 -102 41 0 99
56 99 97 0 23 -32 93 -42 93 -2 0 -17 4 -33 8 -17 5 -45 5 -63 0z m96 -44 c12
-14 22 -34 22 -45 0 -28 -26 -75 -45 -83 -83 -32 -158 52 -109 122 33 48 92
50 132 6z"/>
<path d="M6385 5203 c-56 -15 -93 -73 -79 -127 9 -35 59 -76 94 -76 86 0 141
92 94 159 -14 19 -75 54 -86 50 -2 -1 -12 -4 -23 -6z m83 -49 c30 -33 29 -78
-3 -109 -44 -45 -121 -25 -140 35 -10 33 14 81 49 96 38 16 64 10 94 -22z"/>
<path d="M8486 10515 c-99 -25 -158 -123 -135 -225 34 -153 230 -202 331 -82
122 145 -11 354 -196 307z m142 -49 c69 -45 92 -161 45 -224 -39 -52 -70 -67
-137 -67 -53 0 -68 4 -98 27 -44 33 -73 102 -64 150 23 122 152 180 254 114z"/>
<path d="M9240 9949 c-33 -13 -78 -57 -98 -94 -20 -39 -20 -131 0 -170 44 -84
157 -128 245 -94 64 24 123 109 123 179 0 70 -59 155 -123 179 -35 13 -113 13
-147 0z m160 -41 c57 -39 75 -72 75 -138 0 -66 -18 -99 -75 -137 -46 -32 -124
-32 -171 0 -37 24 -79 97 -79 137 0 40 42 113 79 137 47 32 125 32 171 1z"/>
<path d="M9865 9291 c-189 -85 -131 -366 75 -366 161 0 252 193 147 312 -60
69 -145 89 -222 54z m163 -38 c73 -54 95 -155 49 -224 -24 -37 -97 -79 -137
-79 -40 0 -113 42 -137 79 -27 40 -31 117 -9 159 18 34 53 68 86 81 37 16 117
7 148 -16z"/>
<path d="M10330 8575 c-46 -21 -68 -42 -92 -89 -42 -81 -18 -181 55 -240 32
-26 48 -31 105 -34 60 -3 72 0 113 26 119 77 118 235 -4 326 -35 26 -129 32
-177 11z m167 -41 c45 -34 66 -70 71 -123 15 -156 -190 -238 -287 -115 -62 79
-37 203 51 248 43 22 129 17 165 -10z"/>
<path d="M10631 7788 c-136 -67 -136 -269 1 -339 103 -52 233 0 269 108 53
163 -115 308 -270 231z m169 -29 c108 -61 105 -231 -5 -283 -72 -35 -164 -14
-207 47 -30 41 -36 123 -13 171 37 77 147 109 225 65z"/>
<path d="M10776 6926 c-153 -57 -168 -273 -23 -348 129 -67 281 23 281 167 0
134 -133 227 -258 181z m144 -39 c49 -26 90 -90 90 -140 0 -45 -35 -109 -75
-136 -80 -54 -186 -28 -232 59 -29 54 -29 94 0 150 41 84 133 112 217 67z"/>
<path d="M10775 6013 c-76 -40 -109 -99 -103 -184 8 -113 92 -186 203 -177
158 13 232 201 126 322 -46 53 -162 73 -226 39z m167 -29 c70 -36 100 -148 58
-222 -80 -143 -300 -85 -300 79 0 127 125 201 242 143z"/>
<path d="M10552 5199 c-66 -33 -97 -87 -97 -169 0 -54 5 -73 24 -102 65 -95
197 -116 286 -46 71 56 87 189 32 262 -57 74 -159 97 -245 55z m178 -32 c48
-32 72 -78 72 -138 0 -164 -206 -219 -299 -80 -45 66 -21 168 50 219 44 31
131 31 177 -1z"/>
<path d="M10285 4476 c-40 -17 -84 -63 -101 -103 -27 -62 -11 -157 34 -206 42
-47 138 -72 203 -52 114 35 166 183 100 287 -48 76 -155 110 -236 74z m155
-37 c44 -27 62 -52 76 -103 28 -104 -48 -201 -156 -199 -87 1 -148 55 -158
138 -6 57 2 86 35 126 51 60 139 77 203 38z"/>
<path d="M9885 3835 c-5 -2 -22 -6 -37 -9 -37 -8 -98 -63 -114 -103 -35 -82
-4 -189 67 -239 116 -80 285 -1 297 139 8 101 -51 184 -148 206 -48 11 -49 11
-65 6z m91 -44 c54 -24 86 -71 92 -132 6 -60 -10 -100 -54 -139 -63 -54 -150
-52 -214 6 -60 55 -70 148 -23 213 23 31 98 71 133 71 14 0 43 -9 66 -19z"/>
<path d="M9300 3195 c-71 -33 -110 -94 -110 -175 0 -117 84 -196 201 -188 237
17 238 362 1 375 -37 2 -70 -2 -92 -12z m160 -36 c99 -56 106 -204 12 -274
-39 -29 -149 -28 -189 1 -95 71 -85 226 18 277 47 23 113 21 159 -4z"/>
<path d="M3452 3024 c-45 -23 -100 -90 -108 -131 -28 -147 96 -265 238 -228
209 54 176 359 -40 372 -39 3 -67 -2 -90 -13z m157 -34 c92 -46 113 -173 42
-254 -46 -52 -144 -65 -206 -26 -72 44 -98 154 -52 221 51 76 137 100 216 59z"/>
<path d="M8696 2738 c-171 -38 -199 -282 -41 -358 120 -58 260 19 273 149 13
137 -101 239 -232 209z m135 -53 c68 -44 91 -149 46 -216 -52 -77 -140 -101
-216 -58 -55 31 -75 65 -79 134 -2 47 1 67 17 92 50 80 150 100 232 48z"/>
<path d="M4165 2553 c-70 -37 -105 -94 -105 -173 0 -110 79 -190 186 -190 105
0 183 72 192 175 9 114 -74 205 -187 205 -31 -1 -69 -8 -86 -17z m177 -38 c39
-29 68 -86 68 -135 0 -119 -127 -196 -237 -144 -111 53 -112 231 -1 288 44 22
134 17 170 -9z"/>
<path d="M8036 2406 c-76 -28 -126 -99 -126 -179 0 -83 39 -143 115 -178 77
-35 162 -15 222 54 76 86 49 229 -54 289 -42 25 -110 31 -157 14z m139 -39
c110 -62 116 -204 12 -281 -21 -16 -43 -21 -87 -21 -66 0 -99 18 -137 75 -32
46 -32 124 0 171 26 39 97 79 142 79 16 0 48 -10 70 -23z"/>
<path d="M4862 2269 c-58 -29 -94 -85 -100 -154 -17 -207 265 -288 359 -103
35 68 16 183 -37 230 -57 50 -152 61 -222 27z m165 -25 c112 -54 112 -234 0
-288 -72 -34 -167 -13 -209 47 -33 45 -36 125 -8 175 42 74 138 103 217 66z"/>
<path d="M7252 2145 c-102 -52 -137 -169 -79 -267 37 -64 86 -92 164 -92 52
-1 67 3 105 29 51 36 88 102 88 161 0 92 -81 179 -175 190 -41 4 -59 1 -103
-21z m158 -27 c50 -26 90 -89 90 -143 0 -54 -40 -117 -90 -142 -56 -29 -96
-29 -150 0 -50 26 -90 90 -90 142 0 52 40 116 90 142 54 29 94 29 150 1z"/>
<path d="M5715 2072 c-188 -88 -127 -365 80 -365 185 0 259 247 104 350 -53
35 -128 41 -184 15z m151 -32 c126 -62 115 -241 -18 -295 -127 -51 -257 81
-207 212 34 90 134 127 225 83z"/>
<path d="M6435 2041 c-189 -85 -131 -366 75 -366 126 0 210 109 186 240 -14
71 -107 145 -186 145 -19 0 -53 -9 -75 -19z m163 -38 c48 -36 72 -81 72 -138
0 -66 -29 -111 -90 -143 -108 -56 -230 20 -230 143 0 69 39 128 100 154 37 16
117 7 148 -16z"/>
</g>
</svg>
