<?xml version="1.0" standalone="no"?>
<!DOCTYPE svg PUBLIC "-//W3C//DTD SVG 20010904//EN"
 "http://www.w3.org/TR/2001/REC-SVG-20010904/DTD/svg10.dtd">
<svg version="1.0" xmlns="http://www.w3.org/2000/svg"
 width="1033.000000pt" height="1280.000000pt" viewBox="0 0 1033.000000 1280.000000"
 preserveAspectRatio="xMidYMid meet">
<metadata>
Created by potrace 1.15, written by Peter Selinger 2001-2017
</metadata>
<g transform="translate(0.000000,1280.000000) scale(0.100000,-0.100000)"
fill="#000000" stroke="none">
<path d="M5731 12790 c-142 -30 -263 -92 -351 -180 -77 -77 -124 -161 -142
-253 -14 -77 3 -68 -178 -87 -304 -32 -696 -146 -856 -250 -158 -103 -235
-220 -425 -644 -58 -130 -135 -266 -175 -307 -19 -20 -40 -29 -81 -34 -146
-18 -428 -102 -613 -182 -174 -76 -287 -144 -387 -236 -32 -30 -101 -82 -153
-117 -570 -381 -1043 -910 -1314 -1470 -54 -113 -56 -117 -65 -240 -6 -69 -20
-213 -32 -320 -23 -207 -30 -491 -17 -697 9 -127 31 -204 80 -273 17 -25 55
-80 85 -122 l53 -78 -37 0 c-67 0 -176 -29 -249 -65 -97 -47 -157 -103 -195
-180 -28 -58 -31 -71 -28 -142 6 -126 41 -186 208 -352 146 -145 214 -237 295
-397 98 -196 145 -384 153 -619 6 -186 -9 -304 -56 -458 -58 -186 -62 -332
-14 -516 62 -242 217 -418 417 -476 73 -21 257 -16 323 8 l42 16 -2 -127 c-2
-120 0 -132 30 -215 45 -126 114 -235 222 -349 151 -159 320 -277 590 -412
131 -66 396 -176 423 -176 16 0 217 -270 321 -430 48 -74 107 -181 107 -194 0
-2 -11 -7 -24 -10 -13 -3 -31 -17 -39 -30 -42 -64 -53 -66 -857 -146 -615 -61
-1078 -132 -1211 -186 -360 -146 -709 -416 -992 -769 -218 -271 -478 -709
-532 -898 -14 -47 -28 -94 -31 -104 -3 -10 17 27 46 82 90 175 354 559 555
810 415 517 816 787 1313 885 57 11 108 22 113 25 28 18 228 46 387 56 l183
10 66 -36 c90 -49 163 -107 255 -201 206 -211 338 -453 403 -742 20 -88 30
-112 66 -159 99 -128 251 -211 444 -244 44 -7 222 -12 475 -13 455 -3 494 -8
666 -82 112 -48 205 -64 414 -70 313 -11 541 35 806 161 126 59 216 118 354
230 186 150 329 209 707 290 240 52 419 100 510 135 210 83 354 213 429 388
22 52 22 55 4 32 -81 -98 -109 -125 -183 -173 -157 -104 -266 -140 -677 -222
-446 -88 -520 -116 -772 -288 -164 -112 -354 -229 -450 -278 -318 -160 -648
-200 -889 -108 -101 39 -243 74 -354 88 -49 7 -247 16 -440 21 -192 5 -370 11
-395 15 -188 26 -278 50 -401 107 -81 37 -87 42 -121 101 -55 95 -78 144 -177
378 -161 381 -271 528 -468 626 -40 20 -73 37 -73 38 0 1 72 3 161 4 327 2
543 52 707 164 l53 36 10 -27 c11 -27 24 -98 35 -186 l6 -48 23 22 c14 13 30
39 36 58 28 84 -17 290 -102 467 -20 44 -37 81 -35 82 5 5 165 -123 220 -176
32 -31 73 -78 91 -106 96 -147 275 -275 485 -347 308 -105 786 -89 1154 39
180 62 359 163 741 418 486 325 591 377 950 466 201 50 368 112 583 219 460
228 725 490 817 805 21 75 24 97 18 182 l-6 96 24 -7 c44 -14 225 -19 280 -7
152 33 290 148 372 312 107 213 125 447 52 680 -45 143 -59 243 -59 414 0 184
22 319 78 484 82 241 248 492 410 621 64 51 105 104 144 187 22 48 27 72 27
138 0 92 -19 137 -86 210 -154 167 -467 215 -684 106 -30 -15 -55 -27 -55 -26
0 1 7 22 16 46 9 24 16 73 16 109 0 47 6 72 19 92 11 14 27 45 37 68 l17 41
44 -66 c58 -88 129 -137 210 -143 41 -3 69 1 94 13 45 21 110 87 144 144 25
43 25 45 7 58 -17 12 -20 12 -29 -3 -66 -110 -106 -136 -197 -132 -59 3 -74 8
-125 43 -80 55 -123 128 -123 206 0 48 5 63 27 90 28 33 83 62 140 74 31 6 32
5 43 -37 25 -93 77 -158 124 -158 59 0 62 75 9 181 -44 85 -47 87 -174 88 -71
1 -93 -3 -132 -23 -40 -20 -47 -21 -47 -7 0 9 -14 54 -31 101 -46 130 -45 127
-28 113 31 -25 193 -64 274 -65 135 -2 195 33 195 114 0 45 -36 121 -82 174
-32 36 -33 36 -88 31 -113 -12 -115 -24 -17 -108 39 -34 76 -69 81 -77 14 -23
-17 -40 -90 -47 -103 -12 -213 12 -286 62 -43 29 -88 111 -88 160 0 60 37 138
89 186 53 49 96 64 157 52 50 -9 123 -84 154 -158 13 -31 30 -57 38 -57 22 0
72 56 72 82 0 66 -97 172 -207 227 -24 12 -43 24 -43 27 0 3 16 24 35 47 50
58 71 133 56 205 -15 75 -51 133 -135 217 -79 79 -169 131 -246 141 l-48 6 38
51 c69 90 75 168 19 232 -37 41 -90 63 -186 75 l-74 10 -69 -55 c-38 -30 -72
-59 -75 -65 -8 -13 26 -13 119 1 132 20 216 -10 216 -76 0 -57 -78 -157 -133
-170 -88 -20 -110 -22 -158 -13 -208 38 -375 234 -293 345 28 37 104 78 175
93 61 13 69 22 69 87 0 35 -22 63 -48 63 -9 0 -35 -9 -57 -19 l-40 -18 0 73
c0 63 -3 76 -25 100 -43 46 -95 64 -191 64 l-86 0 -56 -59 c-90 -94 -78 -105
82 -75 188 35 233 -2 166 -136 -27 -53 -93 -92 -186 -111 -155 -31 -331 87
-398 266 -27 71 -27 115 -3 195 15 52 25 69 50 83 48 28 141 25 232 -8 92 -33
119 -35 134 -12 9 14 6 27 -15 65 -31 56 -91 92 -154 92 -50 0 -138 -25 -181
-51 -44 -27 -51 -24 -58 22 -16 99 -93 196 -194 246 -52 26 -66 28 -172 28
-96 -1 -126 -5 -186 -25 l-71 -25 -17 61 c-22 78 -81 169 -148 228 -27 26 -48
46 -45 46 2 0 24 -7 47 -15 23 -8 68 -15 99 -15 68 0 112 24 138 74 l18 35 22
-44 22 -45 -23 0 c-26 0 -46 -18 -46 -42 0 -26 37 -57 106 -89 34 -16 73 -42
85 -58 28 -35 127 -66 188 -58 41 5 226 -55 331 -107 65 -32 97 -55 339 -235
414 -308 760 -651 985 -974 127 -183 251 -420 282 -539 8 -33 51 -170 94 -304
132 -404 156 -522 147 -721 -4 -100 -10 -143 -29 -198 -29 -82 -81 -167 -144
-235 l-45 -49 20 -20 c25 -25 33 -26 71 -6 40 21 94 94 143 195 37 77 42 94
45 176 9 192 -30 538 -88 783 -121 516 -344 942 -675 1291 -49 52 -138 147
-198 211 -378 408 -836 718 -1320 896 -127 46 -129 47 -176 107 -77 97 -94
139 -88 210 13 148 -103 433 -266 651 -69 93 -219 239 -313 307 -154 110 -332
191 -505 229 -109 23 -191 25 -349 5 -109 -14 -232 -24 -642 -54 -54 -4 -98
-5 -98 -1 0 19 105 151 152 191 216 185 487 213 684 72 34 -24 77 -62 95 -85
40 -51 48 -38 24 40 -36 118 -119 205 -243 251 -65 25 -218 35 -291 20z m550
-550 c362 -36 645 -198 821 -470 50 -77 118 -201 118 -215 0 -3 -17 6 -37 20
-94 63 -208 71 -302 19 -64 -34 -162 -132 -185 -183 l-18 -38 -44 42 c-94 92
-225 119 -361 73 l-72 -24 -4 66 c-2 36 -10 100 -17 142 -24 139 14 197 174
267 145 64 222 64 289 2 68 -62 90 -179 45 -236 -19 -24 -26 -27 -69 -23 -37
4 -61 15 -102 46 -52 39 -67 46 -94 43 -32 -3 -3 -82 51 -139 66 -70 153 -93
244 -63 37 12 48 23 77 75 124 223 44 370 -210 384 -218 11 -453 -95 -516
-233 -41 -88 -11 -215 72 -310 23 -25 30 -40 21 -43 -21 -7 -115 -81 -145
-115 -174 -193 -96 -335 172 -312 43 4 83 10 88 14 15 10 3 152 -14 158 -8 3
-38 -17 -73 -51 -78 -75 -119 -73 -169 8 -20 31 -20 36 -7 81 62 203 276 244
500 94 165 -110 212 -248 111 -325 -39 -30 -141 -64 -190 -64 -19 0 -40 -6
-47 -14 -12 -11 -38 -12 -149 -4 -235 17 -323 -1 -417 -86 l-41 -37 -15 29
c-14 27 -70 70 -111 86 -16 6 -12 11 30 35 62 36 86 62 119 126 94 189 26 330
-203 422 -17 6 4 8 70 5 84 -3 99 -1 139 20 56 30 98 95 106 164 l6 49 -84 43
c-47 23 -90 42 -96 42 -19 0 -14 -26 13 -80 29 -57 32 -102 8 -126 -14 -14
-32 -16 -112 -11 -206 10 -299 81 -256 193 45 119 261 242 383 219 89 -16 156
-87 168 -176 9 -68 15 -74 53 -54 20 10 39 31 47 52 14 33 14 38 -11 90 -53
107 -207 193 -351 194 -62 1 -80 -3 -116 -25 -24 -14 -79 -43 -123 -64 -88
-42 -148 -89 -171 -133 -18 -37 -18 -110 1 -157 30 -72 138 -164 243 -208 68
-28 65 -29 -25 -8 -140 32 -374 16 -489 -35 -26 -12 -61 -21 -78 -21 -17 0
-82 -9 -145 -20 -194 -34 -243 -27 -348 54 -74 55 -93 80 -93 118 0 49 63 92
181 123 67 18 244 26 290 13 63 -18 34 -68 -66 -116 -76 -38 -76 -46 7 -88 99
-50 174 -20 204 82 46 158 -58 314 -210 314 -63 0 -255 -59 -354 -109 -154
-78 -199 -197 -120 -316 39 -59 85 -96 178 -144 93 -48 185 -71 289 -74 l79
-1 -5 -36 c-3 -19 -6 -36 -7 -37 -1 -1 -28 11 -61 27 -186 89 -481 75 -645
-30 -100 -64 -151 -146 -158 -257 l-5 -73 -41 0 c-93 0 -206 -44 -306 -119
-30 -23 -57 -41 -60 -41 -3 1 -22 16 -44 35 l-39 34 27 11 c45 17 128 77 191
139 51 49 67 59 108 65 53 8 61 21 18 31 l-30 6 30 47 c16 26 39 78 50 117
108 370 331 651 634 799 183 89 287 112 576 125 148 7 304 23 504 51 434 60
547 68 726 50z m762 -744 c93 -34 211 -146 263 -251 80 -163 25 -264 -149
-273 -52 -3 -79 1 -120 17 -75 30 -145 41 -210 32 -31 -4 -57 -5 -57 -2 1 3 7
17 15 31 19 33 19 121 0 146 -23 30 -19 32 37 18 84 -22 178 -16 178 11 0 14
-76 46 -137 60 -37 7 -39 16 -22 95 11 53 48 106 83 120 31 13 76 11 119 -4z
m-1593 -88 c102 -24 213 -80 245 -122 67 -89 25 -164 -137 -247 -62 -31 -115
-37 -180 -19 -71 20 -70 46 6 158 20 30 33 59 30 64 -9 15 -98 3 -142 -19 -53
-27 -76 -63 -68 -108 9 -46 64 -108 130 -145 l50 -29 -30 -6 c-157 -31 -231
-63 -306 -133 -58 -54 -78 -88 -93 -159 l-10 -52 -53 35 c-59 40 -160 84 -194
85 -14 0 -3 7 29 18 73 25 99 45 137 104 48 77 61 115 61 182 0 47 -6 71 -28
109 -15 27 -27 64 -27 83 0 45 25 102 47 109 10 3 46 19 81 36 45 21 62 34 58
44 -17 46 227 53 394 12z m-810 -202 c90 -37 139 -73 178 -130 59 -88 34 -167
-65 -200 -47 -16 -128 -21 -157 -10 -40 15 -7 59 69 93 l30 14 -35 15 c-85 35
-154 28 -174 -20 -35 -82 52 -213 156 -238 26 -6 16 -8 -43 -9 -118 -2 -201
-33 -298 -112 l-34 -28 -33 70 c-18 38 -54 91 -80 119 -45 49 -149 110 -186
110 -10 0 -18 4 -18 8 0 14 244 248 295 283 81 55 136 70 240 66 69 -3 105
-10 155 -31z m-1175 -272 c-43 -34 -180 -94 -237 -104 -218 -40 -425 -254
-436 -452 -2 -37 1 -83 8 -104 16 -48 82 -113 143 -142 26 -12 47 -24 47 -26
0 -2 -17 -15 -37 -28 -21 -14 -50 -37 -65 -51 l-26 -25 -7 51 c-16 113 -78
236 -145 286 -38 27 -103 51 -141 51 -15 0 -52 -9 -81 -20 -78 -29 -272 -191
-304 -252 -13 -26 -19 -28 -73 -28 -32 0 -77 -7 -100 -15 -22 -8 -41 -13 -41
-11 0 2 44 42 98 88 406 352 809 591 1262 749 148 52 165 56 135 33z m3589
-25 c116 -32 237 -258 212 -394 -11 -58 -79 -119 -161 -144 -128 -40 -282 -21
-328 41 -34 46 -7 98 90 169 48 36 54 44 51 71 -2 18 -9 33 -16 36 -22 7 -126
-108 -157 -173 -36 -76 -46 -172 -20 -211 9 -14 15 -27 13 -27 -2 -1 -28 -11
-58 -21 -66 -22 -148 -75 -188 -121 l-30 -33 -64 63 c-36 35 -88 75 -117 89
-28 15 -51 27 -51 29 0 1 23 0 51 -2 67 -4 125 19 178 72 78 76 130 218 117
315 -7 51 -35 120 -59 144 -16 16 -16 17 4 23 12 4 40 2 63 -5 49 -13 75 -8
236 49 119 42 168 48 234 30z m-1474 -75 c29 -16 74 -52 99 -81 l46 -52 0
-113 c1 -123 19 -193 71 -271 14 -21 24 -40 22 -41 -67 -40 -132 -90 -183
-140 -36 -35 -68 -60 -71 -55 -11 18 -109 69 -132 69 -33 0 -19 16 20 23 49 8
140 54 187 94 51 44 71 80 71 132 0 75 -98 154 -244 196 -64 19 -114 11 -175
-26 -57 -34 -40 -45 167 -110 105 -32 162 -67 162 -98 0 -22 -52 -71 -111
-105 -58 -33 -147 -35 -241 -6 -86 26 -137 71 -167 148 -19 50 -22 71 -17 115
18 144 139 289 284 344 57 21 150 11 212 -23z m698 -50 c58 -29 126 -101 167
-176 31 -57 28 -105 -9 -160 -49 -73 -100 -71 -231 12 -100 64 -135 65 -149 7
-9 -36 -8 -39 35 -83 24 -26 58 -55 74 -66 17 -11 21 -17 11 -14 -49 16 -151
24 -204 15 -31 -5 -60 -9 -63 -9 -10 0 -30 51 -40 104 -12 67 4 155 44 229 78
147 233 207 365 141z m-2166 -22 c57 -33 81 -118 95 -329 4 -62 1 -81 -20
-127 -48 -104 -129 -173 -275 -233 -80 -34 -95 -37 -188 -37 -93 -1 -103 1
-142 26 -49 33 -68 82 -58 152 6 40 13 50 47 72 47 30 79 77 79 120 0 36 16
54 46 54 27 0 48 -28 70 -92 9 -28 22 -48 30 -48 16 0 49 49 65 98 10 30 8 36
-12 58 -13 13 -47 36 -76 50 -42 21 -62 25 -95 20 l-43 -6 -36 74 -35 74 56 5
c30 2 102 19 160 37 200 62 269 68 332 32z m-768 -121 c85 -59 155 -164 143
-214 -9 -34 -55 -51 -115 -43 -122 16 -149 17 -174 7 -42 -16 -36 -45 15 -75
45 -27 151 -56 204 -56 l31 0 -1 -70 c-1 -38 -3 -70 -3 -70 -1 0 -27 12 -59
26 -49 23 -70 26 -150 26 -79 -1 -96 2 -110 18 -10 11 -40 27 -69 36 -154 50
-188 105 -152 239 19 70 39 113 75 163 l31 42 146 0 c145 0 146 0 188 -29z
m1500 -51 c67 -32 112 -89 119 -150 3 -27 16 -72 28 -100 54 -127 -25 -313
-159 -372 -92 -41 -228 -30 -344 28 -44 22 -108 89 -121 127 -18 49 38 78 183
97 123 16 163 32 158 62 -5 35 -51 51 -148 52 -71 0 -94 -4 -135 -24 -67 -33
-95 -77 -95 -147 0 -29 7 -69 14 -88 8 -19 14 -35 13 -35 -2 0 -28 9 -59 20
-31 11 -74 22 -97 26 -23 4 -41 8 -41 10 0 2 15 23 33 47 48 63 77 137 89 233
7 52 16 84 24 84 6 0 41 24 77 54 130 106 331 140 461 76z m2972 -79 c39 -24
75 -99 82 -173 4 -55 3 -60 -32 -102 -20 -25 -48 -70 -62 -100 -22 -48 -31
-57 -92 -89 -92 -48 -162 -67 -249 -67 -65 0 -77 3 -98 25 -15 14 -25 36 -25
53 0 31 43 102 84 141 14 14 26 30 26 37 0 21 -60 74 -84 74 -31 0 -73 -47
-92 -102 l-16 -47 -46 34 c-26 18 -65 40 -87 49 l-40 17 58 23 c31 13 74 36
93 51 41 31 90 103 99 146 6 24 9 27 25 19 27 -15 92 -11 200 9 129 26 216 26
256 2z m-5175 -241 c74 -54 120 -152 120 -260 0 -77 -16 -122 -57 -164 -40
-40 -84 -56 -154 -56 -47 0 -60 3 -60 15 0 8 9 15 21 15 23 0 60 18 71 34 17
24 7 83 -22 134 -17 28 -32 52 -35 52 -2 0 -1 -15 2 -33 4 -26 -1 -40 -22 -65
-15 -18 -32 -32 -38 -32 -7 0 -22 16 -35 35 -12 20 -45 51 -72 71 -28 20 -50
42 -50 48 0 19 72 127 110 165 71 71 156 86 221 41z m4404 -55 c99 -48 167
-159 173 -284 10 -175 -73 -259 -246 -249 -101 6 -147 28 -189 92 -58 86 -41
125 67 146 74 15 109 29 120 49 13 25 1 36 -52 49 -66 17 -117 15 -164 -7 -52
-24 -69 -62 -61 -136 7 -74 48 -144 123 -214 l61 -58 -85 30 c-72 25 -97 28
-166 25 -57 -2 -94 -9 -123 -24 l-42 -21 28 41 c45 67 56 105 55 191 0 56 -7
96 -21 133 -17 43 -19 52 -6 52 8 0 38 22 66 49 55 52 201 135 264 151 57 14
153 6 198 -15z m-920 0 c148 -31 270 -118 326 -230 28 -57 31 -72 27 -132 -4
-85 -37 -156 -109 -236 -48 -54 -51 -60 -36 -75 13 -13 19 -13 29 -4 19 19 33
14 16 -5 -49 -56 -88 -176 -88 -274 0 -176 94 -294 245 -306 82 -7 226 26 198
46 -5 3 -19 21 -32 39 -21 31 -54 42 -65 23 -9 -14 -122 19 -179 53 -120 72
-121 190 -1 295 102 89 229 138 332 128 101 -11 160 -78 170 -193 l5 -64 -54
-25 c-92 -43 -118 -32 -143 58 -9 32 -23 60 -31 63 -68 27 -99 -163 -35 -221
64 -58 244 -7 353 98 108 106 102 220 -15 286 l-49 28 53 5 c107 9 218 93 274
208 24 50 32 59 49 54 11 -3 49 -8 85 -11 77 -6 154 16 270 79 53 28 76 36 79
27 11 -33 99 -110 164 -145 40 -20 93 -56 119 -79 26 -23 62 -49 80 -58 l33
-17 -68 0 c-41 0 -91 -8 -129 -21 -59 -20 -62 -20 -71 -2 -6 10 -27 35 -49 55
-112 108 -387 102 -553 -12 -53 -37 -91 -90 -100 -141 -12 -64 41 -156 122
-212 l38 -26 99 24 c153 38 153 50 4 90 -126 35 -168 52 -168 68 0 6 13 39 29
72 52 110 134 166 220 150 109 -20 229 -151 247 -271 19 -128 -68 -204 -232
-204 l-73 0 -7 -36 c-10 -52 11 -69 84 -68 66 1 143 24 226 68 33 17 69 29 82
28 18 -3 23 3 27 35 23 158 45 218 102 277 47 47 90 66 150 66 77 0 139 -42
255 -170 79 -88 93 -126 70 -194 -19 -60 -115 -140 -175 -146 -102 -11 -111
37 -25 145 l32 40 -29 12 c-50 22 -107 16 -134 -13 -53 -57 -15 -221 68 -294
83 -73 164 -63 258 33 73 74 105 137 112 218 3 33 9 58 12 56 3 -2 25 -12 49
-22 l42 -18 -55 -58 c-164 -172 -140 -358 65 -502 24 -16 23 -17 -15 -1 -110
46 -367 126 -505 158 -260 59 -579 96 -848 96 -295 0 -754 -58 -947 -120 -136
-44 -323 -85 -510 -112 -121 -17 -633 -17 -780 0 -249 30 -511 82 -770 154
l-150 42 67 16 c176 43 246 158 188 313 -27 72 -102 162 -177 212 l-61 41 40
40 c54 52 80 113 86 200 l4 72 -69 41 c-108 64 -116 58 -87 -66 31 -135 -4
-198 -120 -216 -29 -5 -49 0 -85 18 -129 66 -207 151 -197 215 23 155 450 227
692 116 78 -36 117 -69 148 -126 33 -60 37 -147 11 -224 -9 -27 -14 -51 -10
-54 3 -3 23 -1 45 5 l39 10 -49 -54 c-64 -70 -93 -144 -93 -243 0 -226 180
-369 429 -340 120 14 226 50 145 50 -81 0 -262 55 -350 107 -97 57 -161 138
-161 204 0 94 86 165 268 223 126 40 177 42 232 13 49 -27 90 -77 90 -111 0
-34 -27 -63 -75 -82 -39 -14 -52 -15 -86 -5 -22 7 -49 21 -60 32 -19 19 -19
19 -19 -16 0 -113 77 -172 184 -141 97 28 183 116 200 205 15 81 -45 172 -153
230 -49 26 -70 31 -124 31 l-65 0 -17 68 c-42 168 -28 290 44 355 56 50 97 61
217 54 118 -6 168 -24 232 -87 48 -46 59 -86 38 -132 -51 -105 -206 -103 -176
2 14 50 15 50 -44 50 -64 0 -86 -16 -86 -64 0 -84 123 -202 231 -221 84 -15
189 76 189 163 0 25 4 33 14 29 78 -30 167 -49 251 -54 298 -17 423 94 268
238 -70 65 -68 65 -68 -10 0 -58 -4 -73 -27 -103 -56 -74 -167 -87 -283 -34
-73 33 -155 87 -155 102 0 6 16 43 35 82 39 77 80 119 153 156 l48 24 45 -27
c24 -15 63 -35 86 -44 43 -17 143 -34 143 -24 0 3 -33 21 -73 41 -40 19 -81
44 -91 55 -19 21 -19 21 20 21 21 0 71 -7 109 -15z m-918 -51 l38 -7 -54 -19
c-30 -10 -56 -16 -58 -14 -10 10 11 57 23 52 7 -3 30 -8 51 -12z m-1877 -143
c170 -53 229 -174 157 -318 l-23 -48 -80 -6 c-44 -3 -103 -15 -134 -27 -30
-12 -56 -22 -56 -22 -1 0 -5 28 -8 62 -4 34 -11 70 -16 79 -8 13 -4 18 21 23
45 9 89 44 106 83 28 68 -9 98 -80 64 -43 -21 -147 -106 -147 -121 0 -4 12
-11 28 -16 18 -5 22 -8 11 -11 -40 -10 -63 -146 -34 -202 9 -18 15 -35 12 -37
-9 -9 -133 55 -159 82 -47 51 -82 133 -86 204 -3 58 0 70 26 111 71 110 282
156 462 100z m-1139 -58 c13 -21 43 -51 66 -68 34 -25 42 -36 42 -64 1 -54
-21 -112 -56 -148 -30 -29 -40 -33 -87 -33 -45 0 -62 6 -106 36 l-53 36 -18
-23 c-55 -73 -18 -130 95 -145 l41 -6 -42 -44 c-65 -68 -95 -135 -101 -225
l-4 -77 -27 7 c-14 5 -74 14 -133 21 -103 13 -107 15 -91 32 15 17 15 20 -3
39 -10 12 -14 20 -9 17 6 -2 27 -12 48 -21 42 -20 123 -37 170 -37 29 0 29 1
-36 61 -73 66 -160 189 -177 247 -23 86 -5 170 54 239 64 76 282 184 387 192
9 0 27 -16 40 -36z m2663 -78 c-9 -14 -19 -54 -22 -90 -5 -73 13 -135 55 -185
23 -28 23 -30 6 -36 -10 -3 -40 -14 -66 -24 -45 -17 -48 -18 -41 -2 31 70 1
160 -85 254 l-52 56 53 7 c29 4 73 15 98 25 65 26 74 25 54 -5z m-1179 5 c11
0 10 -6 -2 -31 -17 -33 -23 -30 -38 20 -6 20 -4 23 10 18 9 -4 23 -7 30 -7z
m-2062 -216 c-25 -59 -24 -197 2 -250 l21 -40 -44 24 c-49 28 -151 34 -192 12
l-24 -13 18 29 c47 73 225 288 233 280 2 -1 -4 -20 -14 -42z m1131 9 c13 -82
87 -170 189 -223 34 -18 63 -34 64 -34 1 -1 -9 -23 -22 -50 -50 -98 -42 -189
23 -254 l38 -38 -122 -21 c-67 -12 -163 -36 -215 -52 -84 -27 -106 -30 -204
-28 -103 2 -116 5 -177 35 -147 72 -225 237 -169 357 44 94 141 148 298 166
101 12 102 11 146 -14 62 -36 147 -116 147 -137 0 -36 -28 -45 -137 -45 -56 0
-103 -3 -103 -6 0 -18 80 -104 115 -125 104 -60 184 -4 200 143 8 69 -12 155
-49 209 -30 45 -90 91 -129 100 -32 7 -31 7 28 29 33 13 63 23 66 24 4 0 9
-16 13 -36z m994 -121 c27 -26 70 -59 95 -72 26 -14 47 -28 47 -31 0 -3 -11
-11 -24 -17 -14 -6 -44 -28 -66 -49 -36 -32 -41 -41 -37 -69 4 -23 0 -35 -14
-47 -44 -38 -6 -87 82 -106 70 -15 171 -14 193 2 18 13 18 15 -4 35 -12 11
-46 31 -76 44 -29 13 -54 26 -54 30 0 11 77 68 114 83 45 19 106 19 181 0 114
-30 165 -85 165 -180 0 -59 -22 -105 -70 -149 -87 -78 -206 -72 -328 18 l-60
44 -21 -22 c-12 -12 -21 -34 -21 -48 l0 -25 -54 18 c-94 30 -253 59 -384 69
l-127 10 -109 57 c-116 61 -146 91 -146 149 0 57 12 96 32 102 20 5 48 50 48
76 0 24 15 27 54 11 47 -20 174 -19 248 1 l58 17 38 -26 c43 -30 72 -74 72
-109 0 -54 -60 -97 -171 -122 -72 -17 -88 -28 -70 -50 20 -24 81 -39 157 -39
128 0 204 57 204 154 0 59 -34 158 -74 216 l-32 46 35 53 35 53 17 -40 c10
-22 40 -61 67 -87z m4697 61 c-4 -10 -11 -30 -17 -44 l-9 -27 -47 23 c-26 12
-54 25 -62 28 -8 3 -2 6 15 7 17 1 48 7 70 15 55 18 58 18 50 -2z m-5117 -68
c-8 -8 -77 -9 -85 -2 -3 4 15 7 42 7 27 0 46 -2 43 -5z m-1748 -232 c0 -5 -7
-17 -15 -27 -8 -11 -15 -31 -15 -44 0 -17 -14 -37 -41 -60 -23 -20 -50 -54
-60 -76 -21 -47 -25 -149 -8 -209 6 -22 9 -41 7 -43 -7 -7 -129 26 -167 46
-44 22 -91 73 -91 98 1 29 76 194 100 220 13 13 45 34 72 48 73 37 219 68 218
47z m7550 -125 c69 -17 168 -64 226 -108 58 -44 104 -122 104 -177 0 -76 -66
-168 -128 -179 -45 -8 -80 -28 -109 -62 -20 -23 -30 -27 -82 -27 -117 0 -148
56 -111 195 13 47 24 103 24 125 1 35 -2 40 -19 37 -11 -2 -40 -16 -65 -31
-38 -23 -47 -35 -58 -77 -17 -65 -11 -151 14 -200 28 -53 95 -93 168 -101 57
-6 64 -11 45 -30 -5 -5 -20 -35 -33 -66 l-22 -55 -62 48 c-35 27 -93 65 -130
86 -37 20 -68 38 -70 39 -1 1 5 16 14 33 8 18 14 40 12 49 -2 10 -32 37 -67
62 -72 50 -95 90 -106 182 -14 111 40 212 130 246 83 31 223 36 325 11z
m-7331 -93 c186 -44 306 -159 281 -270 -11 -48 -30 -76 -86 -121 -26 -22 -61
-53 -78 -70 -17 -17 -58 -51 -91 -76 -33 -25 -89 -73 -125 -107 -36 -34 -66
-61 -67 -61 -2 0 -3 9 -3 19 0 11 -14 31 -31 45 -25 22 -41 26 -90 26 -101 0
-191 -52 -138 -81 12 -6 48 -14 80 -16 l58 -6 -17 -26 c-115 -183 -240 -214
-308 -75 -19 39 -28 76 -32 127 -9 141 37 217 129 217 54 0 84 -11 146 -52 23
-15 46 -28 52 -28 20 0 121 49 121 59 0 13 -43 42 -120 81 -157 79 -272 78
-353 -3 -42 -42 -41 -49 -11 83 9 41 18 76 19 78 2 2 19 -8 39 -22 49 -33 117
-41 197 -22 35 8 72 18 81 21 13 5 23 -5 43 -45 15 -29 49 -75 76 -102 113
-113 229 -116 321 -9 41 48 88 141 88 173 -1 40 -53 133 -75 133 -14 0 -25
-15 -41 -55 -12 -30 -34 -85 -49 -123 -28 -70 -71 -117 -106 -117 -52 0 -149
88 -173 158 -52 146 -13 243 109 273 48 11 85 10 154 -6z m1731 -155 c166 -30
348 -80 565 -154 423 -144 748 -207 1230 -237 195 -12 383 -7 623 17 120 12
177 23 260 50 210 69 449 120 732 156 67 8 211 13 395 13 311 -1 454 -13 715
-61 245 -45 539 -128 659 -185 431 -205 663 -692 526 -1105 -15 -43 -35 -94
-46 -113 -15 -25 -16 -32 -5 -28 11 5 12 0 6 -26 -5 -18 -50 -185 -100 -372
-101 -376 -229 -877 -256 -999 -9 -43 -32 -112 -51 -153 -53 -114 -119 -324
-147 -463 -37 -188 -50 -342 -43 -530 7 -198 25 -317 74 -510 70 -275 46 -428
-100 -645 -90 -133 -291 -304 -514 -438 -156 -94 -237 -132 -374 -177 -66 -22
-164 -60 -216 -85 -90 -43 -96 -44 -119 -28 -31 20 -93 14 -184 -18 -36 -12
-189 -84 -342 -159 -210 -105 -323 -168 -475 -267 -426 -278 -616 -377 -858
-448 -153 -44 -251 -55 -497 -55 -247 0 -312 9 -423 58 -155 68 -233 129 -505
397 -283 278 -365 347 -502 416 -24 12 -81 59 -128 104 -102 98 -173 143 -195
125 -13 -10 -13 -16 0 -47 11 -25 11 -33 2 -29 -6 3 -64 22 -127 42 -133 43
-283 121 -460 239 -277 183 -442 367 -517 575 -23 64 -27 91 -27 190 -1 101 4
132 37 260 129 502 90 1014 -113 1482 -23 51 -50 134 -61 183 -38 172 -121
493 -249 971 -97 358 -128 490 -124 514 8 38 -7 111 -48 240 -66 204 -33 395
98 569 114 153 347 331 604 465 192 100 485 223 610 257 161 43 461 48 670 9z
m-1295 -36 c22 -8 67 -17 100 -22 l59 -7 -116 -51 -116 -51 0 79 c0 70 2 79
16 73 9 -4 35 -13 57 -21z m-1106 -731 c68 -91 167 -116 269 -68 28 13 52 23
52 21 0 -2 -11 -28 -24 -59 -68 -153 -73 -359 -12 -510 l24 -57 -27 -6 c-14
-4 -61 -15 -103 -26 -122 -30 -122 -30 -174 92 -24 58 -52 129 -61 159 -17 51
-17 54 2 67 13 10 50 14 125 14 108 0 130 7 130 41 0 32 -168 87 -235 76 -30
-5 -33 -3 -39 25 -3 17 -6 112 -5 212 l0 181 22 -57 c11 -32 37 -79 56 -105z
m363 -826 c5 -36 17 -90 28 -119 11 -29 20 -56 20 -60 0 -3 -26 11 -57 32 -68
45 -154 76 -240 85 l-61 7 9 28 c10 26 13 27 74 27 53 -1 74 5 132 35 37 19
73 34 78 33 6 -1 13 -31 17 -68z m-269 -190 c29 -13 94 -52 146 -86 51 -33
104 -64 117 -67 22 -6 69 -3 104 7 22 6 70 -140 69 -211 0 -33 10 -89 25 -140
15 -47 65 -233 112 -415 127 -492 185 -689 250 -854 95 -238 101 -455 29 -955
-19 -132 -35 -254 -35 -271 0 -17 -2 -34 -5 -36 -5 -6 -201 15 -292 31 -139
24 -245 70 -286 126 -11 14 -22 49 -27 77 -4 29 -17 71 -29 94 -11 23 -28 68
-36 100 -38 143 -30 262 37 553 22 96 46 213 54 260 27 163 13 324 -37 435
-18 41 -22 65 -20 136 5 166 -59 283 -297 550 -167 188 -226 269 -254 346 -24
70 -19 127 17 188 35 60 134 142 191 158 36 10 115 -2 167 -26z m8547 -7 c65
-42 134 -118 150 -164 18 -54 8 -136 -23 -196 -35 -66 -90 -138 -222 -285
-183 -204 -240 -283 -282 -391 -21 -56 -27 -88 -29 -169 -2 -82 -7 -115 -32
-184 -59 -164 -54 -272 30 -641 49 -214 52 -232 52 -370 1 -152 -8 -206 -49
-290 -12 -25 -25 -67 -28 -93 -12 -85 -66 -136 -186 -176 -61 -21 -194 -44
-313 -55 -67 -6 -68 -6 -68 17 0 14 -16 134 -35 268 -78 546 -72 714 38 1003
l34 89 8 -69 c11 -102 51 -218 102 -295 41 -61 46 -77 53 -147 9 -86 27 -138
57 -165 34 -30 60 -6 77 75 9 41 -20 188 -43 217 -76 94 -85 113 -72 145 27
66 27 66 -17 66 l-40 0 -12 69 c-23 138 19 270 175 555 104 190 147 285 165
368 27 119 12 109 -115 -76 -66 -97 -142 -213 -169 -258 -26 -46 -45 -72 -42
-58 43 177 137 536 170 654 26 88 46 182 49 226 3 41 14 98 24 125 18 50 19
50 69 55 41 4 71 19 164 80 63 41 138 83 165 93 68 24 133 16 195 -23z"/>
<path d="M5716 9530 c-22 -11 -60 -37 -85 -58 -26 -21 -62 -44 -81 -52 -239
-94 -282 -290 -102 -467 177 -174 438 -205 541 -63 34 47 64 129 59 161 -3 24
-153 134 -168 124 -5 -3 2 -38 16 -77 23 -70 30 -130 18 -163 -18 -45 -149
-60 -255 -29 -136 41 -209 103 -209 180 0 87 57 165 178 244 133 88 289 117
362 67 58 -38 75 -80 74 -179 l0 -88 43 0 c64 0 97 35 91 95 -12 105 -112 231
-230 290 -61 30 -80 35 -142 35 -50 -1 -83 -7 -110 -20z"/>
<path d="M6805 7259 c-310 -30 -672 -159 -998 -357 -114 -69 -308 -204 -374
-260 l-33 -27 33 -42 33 -41 65 55 c503 429 1108 658 1594 605 207 -23 373
-80 553 -189 258 -157 291 -140 52 26 -111 77 -237 144 -341 182 -132 49 -371
68 -584 48z"/>
<path d="M3195 7134 c-266 -41 -545 -151 -770 -302 -134 -90 -159 -113 -151
-140 21 -64 80 -41 221 87 53 49 109 95 123 102 15 8 56 32 92 53 93 56 209
103 330 134 95 24 122 27 290 26 167 0 197 -3 305 -28 212 -50 430 -144 610
-266 163 -110 351 -294 442 -432 14 -21 29 -38 34 -38 13 0 39 43 39 64 0 71
-103 190 -275 318 -128 96 -412 270 -531 324 -213 99 -509 137 -759 98z"/>
<path d="M3454 6560 c158 -11 264 -31 413 -76 216 -65 479 -194 705 -345 47
-32 91 -60 96 -61 9 -3 82 78 82 91 0 11 -298 153 -435 208 -323 130 -552 182
-825 188 l-165 4 129 -9z"/>
<path d="M6585 6515 c-138 -20 -365 -78 -504 -129 -120 -45 -320 -132 -335
-146 -12 -12 11 -74 39 -100 35 -33 82 -23 185 38 159 95 382 174 603 214 146
26 469 31 602 10 110 -18 270 -59 323 -83 25 -10 47 -18 49 -16 6 7 -119 87
-182 117 -71 34 -163 64 -260 86 -99 22 -392 27 -520 9z"/>
<path d="M2980 6030 c-86 -5 -121 -12 -191 -38 -48 -18 -95 -39 -105 -47 -18
-13 -16 -14 16 -14 19 0 92 6 161 12 114 11 134 11 195 -5 226 -58 512 -108
774 -133 179 -18 787 -32 863 -21 43 7 47 10 57 44 15 57 13 117 -7 133 -13
11 -95 15 -387 20 -204 4 -501 16 -661 27 -319 23 -554 30 -715 22z"/>
<path d="M6267 6025 c-427 -10 -520 -14 -528 -26 -19 -30 -21 -96 -5 -128 45
-86 202 -97 601 -40 77 11 217 24 310 29 229 11 826 90 954 126 188 53 -211
65 -1332 39z"/>
<path d="M4979 5799 c-146 -156 -175 -603 -73 -1124 21 -105 28 -116 42 -68
37 125 42 211 40 658 -2 384 0 448 14 500 9 33 15 62 13 64 -3 2 -18 -11 -36
-30z"/>
<path d="M3361 5592 c-16 -29 -14 -98 3 -131 84 -161 516 -255 853 -185 70 14
191 60 182 68 -2 2 -29 0 -59 -5 -94 -13 -329 -10 -429 6 -195 32 -388 119
-493 222 -44 43 -47 44 -57 25z"/>
<path d="M5995 5498 c11 -51 41 -84 98 -112 103 -50 166 -58 512 -62 l320 -3
-105 19 c-436 82 -646 129 -758 170 -71 27 -75 26 -67 -12z"/>
<path d="M4233 4748 c-103 -128 -182 -268 -197 -350 -10 -56 10 -118 53 -158
48 -45 110 -75 311 -148 91 -34 207 -77 258 -96 117 -45 186 -58 209 -41 16
12 14 16 -22 50 -88 81 -206 138 -320 155 -316 48 -400 230 -266 576 16 40 28
74 27 74 -2 0 -25 -28 -53 -62z"/>
<path d="M5783 4679 l-32 -32 30 -44 c65 -95 77 -170 34 -217 -48 -52 -128
-73 -420 -111 -285 -37 -429 -78 -482 -138 -18 -19 -17 -20 27 -13 25 3 133
13 240 21 430 34 591 64 708 131 132 77 121 220 -28 385 l-45 50 -32 -32z"/>
<path d="M6329 3814 c-21 -51 -24 -77 -9 -104 9 -16 3 -21 -48 -40 -191 -73
-440 -112 -829 -129 -125 -6 -340 -16 -478 -22 -422 -20 -572 -6 -710 63 -51
26 -58 37 -39 66 8 13 12 31 9 42 -7 22 -64 60 -89 60 -45 0 -211 -204 -204
-251 3 -27 17 -28 155 -11 7 1 28 16 48 33 19 17 33 24 29 16 -6 -18 12 -56
35 -74 83 -64 495 -104 847 -84 104 6 307 11 451 11 276 0 332 6 518 55 134
35 261 82 343 126 47 25 87 39 110 39 70 0 142 53 142 104 0 23 -40 66 -80 86
-21 11 -70 28 -110 39 l-71 20 -20 -45z"/>
<path d="M4562 3080 c-106 -65 -38 -164 163 -236 113 -40 193 -50 266 -34 34
8 205 15 454 20 439 9 501 16 542 64 23 27 22 41 -6 85 l-15 24 -161 -6 c-88
-4 -216 -14 -285 -22 -69 -8 -213 -18 -320 -21 -175 -6 -205 -4 -299 16 -100
20 -209 63 -276 109 -31 20 -31 20 -63 1z"/>
<path d="M5023 2333 c-38 -5 -38 -5 -18 -42 19 -38 66 -76 109 -91 46 -15 110
2 132 35 36 56 -9 95 -117 100 -41 2 -89 1 -106 -2z"/>
<path d="M1485 6393 c14 -95 60 -207 162 -396 161 -294 201 -412 190 -545 -8
-92 -13 -102 -51 -102 -45 0 -48 -7 -25 -52 22 -43 23 -39 -42 -125 -39 -51
-49 -74 -59 -131 -24 -132 5 -231 59 -203 11 7 27 24 35 39 16 31 36 130 36
178 0 22 14 53 44 97 24 35 57 99 72 143 26 72 29 91 29 209 -1 113 -4 141
-27 215 -31 96 -94 231 -158 335 -54 89 -260 385 -267 385 -3 0 -2 -21 2 -47z"/>
<path d="M7335 2700 c-61 -30 -152 -124 -217 -225 -147 -227 -200 -486 -119
-586 l18 -22 26 54 c14 30 45 117 68 194 23 77 44 142 46 144 2 3 25 -16 51
-41 110 -108 274 -180 500 -222 46 -9 192 -29 325 -46 368 -46 562 -98 704
-188 32 -20 96 -52 143 -71 582 -232 1085 -689 1389 -1261 66 -126 71 -123 42
27 -70 357 -298 675 -693 966 -156 115 -251 170 -693 402 -186 98 -306 129
-798 205 -294 46 -436 75 -556 116 -79 26 -206 92 -267 137 l-60 44 -38 -19
-38 -19 7 23 c27 87 112 219 173 266 43 34 131 82 149 82 21 0 15 17 -13 39
-34 27 -96 27 -149 1z"/>
<path d="M7017 1678 c-98 -10 -135 -25 -617 -251 -607 -284 -902 -365 -1298
-355 l-177 4 -75 36 c-122 59 -159 63 -487 60 -311 -3 -389 5 -470 47 -47 23
-109 90 -129 136 -18 45 -107 140 -144 155 -27 11 -34 11 -47 -3 -15 -14 -15
-25 -5 -79 19 -105 84 -221 171 -309 114 -114 169 -127 351 -84 89 20 277 23
395 5 44 -6 164 -27 266 -45 347 -63 518 -69 684 -24 62 17 104 21 186 20 247
-5 390 50 754 289 299 197 411 255 567 297 84 23 270 23 353 0 56 -16 61 -16
73 0 16 23 15 58 -3 76 -34 35 -165 44 -348 25z"/>
</g>
</svg>
